{
	"patcher" : 	{
		"fileversion" : 1,
		"appversion" : 		{
			"major" : 8,
			"minor" : 0,
			"revision" : 3,
			"architecture" : "x64",
			"modernui" : 1
		}
,
		"classnamespace" : "box",
		"rect" : [ 65.0, 79.0, 1262.0, 780.0 ],
		"bglocked" : 0,
		"openinpresentation" : 0,
		"default_fontsize" : 12.0,
		"default_fontface" : 0,
		"default_fontname" : "Arial",
		"gridonopen" : 1,
		"gridsize" : [ 15.0, 15.0 ],
		"gridsnaponopen" : 1,
		"objectsnaponopen" : 1,
		"statusbarvisible" : 2,
		"toolbarvisible" : 1,
		"lefttoolbarpinned" : 0,
		"toptoolbarpinned" : 0,
		"righttoolbarpinned" : 0,
		"bottomtoolbarpinned" : 0,
		"toolbars_unpinned_last_save" : 0,
		"tallnewobj" : 0,
		"boxanimatetime" : 200,
		"enablehscroll" : 1,
		"enablevscroll" : 1,
		"devicewidth" : 0.0,
		"description" : "",
		"digest" : "",
		"tags" : "",
		"style" : "",
		"subpatcher_template" : "",
		"boxes" : [ 			{
				"box" : 				{
					"id" : "obj-126",
					"linecount" : 2,
					"maxclass" : "comment",
					"numinlets" : 1,
					"numoutlets" : 0,
					"patching_rect" : [ 732.0, 29.333332061767578, 126.0, 33.0 ],
					"text" : "Turn on after Kinects are set up & running"
				}

			}
, 			{
				"box" : 				{
					"id" : "obj-117",
					"maxclass" : "newobj",
					"numinlets" : 2,
					"numoutlets" : 1,
					"outlettype" : [ "int" ],
					"patcher" : 					{
						"fileversion" : 1,
						"appversion" : 						{
							"major" : 8,
							"minor" : 0,
							"revision" : 3,
							"architecture" : "x64",
							"modernui" : 1
						}
,
						"classnamespace" : "box",
						"rect" : [ 809.0, 145.0, 553.0, 608.0 ],
						"bglocked" : 0,
						"openinpresentation" : 0,
						"default_fontsize" : 12.0,
						"default_fontface" : 0,
						"default_fontname" : "Arial",
						"gridonopen" : 1,
						"gridsize" : [ 15.0, 15.0 ],
						"gridsnaponopen" : 1,
						"objectsnaponopen" : 1,
						"statusbarvisible" : 2,
						"toolbarvisible" : 1,
						"lefttoolbarpinned" : 0,
						"toptoolbarpinned" : 0,
						"righttoolbarpinned" : 0,
						"bottomtoolbarpinned" : 0,
						"toolbars_unpinned_last_save" : 0,
						"tallnewobj" : 0,
						"boxanimatetime" : 200,
						"enablehscroll" : 1,
						"enablevscroll" : 1,
						"devicewidth" : 0.0,
						"description" : "",
						"digest" : "",
						"tags" : "",
						"style" : "",
						"subpatcher_template" : "",
						"boxes" : [ 							{
								"box" : 								{
									"id" : "obj-10",
									"linecount" : 3,
									"maxclass" : "comment",
									"numinlets" : 1,
									"numoutlets" : 0,
									"patching_rect" : [ 248.500045776367188, 689.0452880859375, 112.666664123535156, 47.0 ],
									"text" : "int\ncurrent number of Shadows recorded"
								}

							}
, 							{
								"box" : 								{
									"comment" : "",
									"id" : "obj-8",
									"index" : 1,
									"maxclass" : "outlet",
									"numinlets" : 1,
									"numoutlets" : 0,
									"patching_rect" : [ 203.499710083007812, 689.0452880859375, 30.0, 30.0 ]
								}

							}
, 							{
								"box" : 								{
									"id" : "obj-152",
									"maxclass" : "newobj",
									"numinlets" : 2,
									"numoutlets" : 1,
									"outlettype" : [ "bang" ],
									"patching_rect" : [ 238.000045776367188, 84.333335876464844, 76.0, 22.0 ],
									"text" : "metro 10000"
								}

							}
, 							{
								"box" : 								{
									"id" : "obj-7",
									"maxclass" : "comment",
									"numinlets" : 1,
									"numoutlets" : 0,
									"patching_rect" : [ 276.1669921875, 31.0, 41.499725341796875, 20.0 ],
									"text" : "bang"
								}

							}
, 							{
								"box" : 								{
									"id" : "obj-52",
									"maxclass" : "number",
									"numinlets" : 1,
									"numoutlets" : 2,
									"outlettype" : [ "", "bang" ],
									"parameter_enable" : 0,
									"patching_rect" : [ 90.666671752929688, 332.04547119140625, 50.0, 22.0 ]
								}

							}
, 							{
								"box" : 								{
									"id" : "obj-45",
									"maxclass" : "newobj",
									"numinlets" : 5,
									"numoutlets" : 4,
									"outlettype" : [ "int", "", "", "int" ],
									"patching_rect" : [ 90.666671752929688, 292.712127685546875, 130.0, 22.0 ],
									"text" : "counter 6 @carryflag 1"
								}

							}
, 							{
								"box" : 								{
									"id" : "obj-44",
									"maxclass" : "newobj",
									"numinlets" : 2,
									"numoutlets" : 1,
									"outlettype" : [ "bang" ],
									"patching_rect" : [ 90.666671752929688, 261.712127685546875, 69.0, 22.0 ],
									"text" : "metro 1000"
								}

							}
, 							{
								"box" : 								{
									"id" : "obj-36",
									"maxclass" : "toggle",
									"numinlets" : 1,
									"numoutlets" : 1,
									"outlettype" : [ "int" ],
									"parameter_enable" : 0,
									"patching_rect" : [ 90.666671752929688, 223.712127685546875, 24.0, 24.0 ]
								}

							}
, 							{
								"box" : 								{
									"id" : "obj-18",
									"maxclass" : "newobj",
									"numinlets" : 1,
									"numoutlets" : 2,
									"outlettype" : [ "bang", "int" ],
									"patching_rect" : [ 238.000045776367188, 211.711944580078125, 63.5, 22.0 ],
									"text" : "t b i"
								}

							}
, 							{
								"box" : 								{
									"id" : "obj-24",
									"maxclass" : "message",
									"numinlets" : 2,
									"numoutlets" : 1,
									"outlettype" : [ "" ],
									"patching_rect" : [ 165.000045776367188, 519.71209716796875, 34.0, 22.0 ],
									"text" : "write"
								}

							}
, 							{
								"box" : 								{
									"id" : "obj-11",
									"maxclass" : "newobj",
									"numinlets" : 1,
									"numoutlets" : 0,
									"patching_rect" : [ 323.83306884765625, 614.37884521484375, 91.0, 22.0 ],
									"text" : "print @popup 1"
								}

							}
, 							{
								"box" : 								{
									"id" : "obj-125",
									"maxclass" : "newobj",
									"numinlets" : 1,
									"numoutlets" : 1,
									"outlettype" : [ "" ],
									"patching_rect" : [ 238.000045776367188, 363.54547119140625, 99.0, 22.0 ],
									"text" : "append 30. h264"
								}

							}
, 							{
								"box" : 								{
									"id" : "obj-112",
									"maxclass" : "newobj",
									"numinlets" : 3,
									"numoutlets" : 2,
									"outlettype" : [ "", "" ],
									"patching_rect" : [ 238.000045776367188, 325.04547119140625, 171.0, 22.0 ],
									"text" : "combine test_vids_B/ idx .mov"
								}

							}
, 							{
								"box" : 								{
									"id" : "obj-126",
									"maxclass" : "button",
									"numinlets" : 1,
									"numoutlets" : 1,
									"outlettype" : [ "bang" ],
									"parameter_enable" : 0,
									"patching_rect" : [ 238.000045776367188, 125.333335876464844, 24.0, 24.0 ]
								}

							}
, 							{
								"box" : 								{
									"id" : "obj-124",
									"maxclass" : "newobj",
									"numinlets" : 1,
									"numoutlets" : 1,
									"outlettype" : [ "" ],
									"patching_rect" : [ 238.000045776367188, 401.04876708984375, 81.0, 22.0 ],
									"text" : "prepend write"
								}

							}
, 							{
								"box" : 								{
									"id" : "obj-123",
									"linecount" : 2,
									"maxclass" : "message",
									"numinlets" : 2,
									"numoutlets" : 1,
									"outlettype" : [ "" ],
									"patching_rect" : [ 333.00006103515625, 495.54547119140625, 166.0, 35.0 ],
									"text" : "write test_vids_A/1.mov 30. h264"
								}

							}
, 							{
								"box" : 								{
									"id" : "obj-111",
									"maxclass" : "newobj",
									"numinlets" : 1,
									"numoutlets" : 1,
									"outlettype" : [ "" ],
									"patching_rect" : [ 333.00006103515625, 465.54547119140625, 128.0, 22.0 ],
									"text" : "prepend set"
								}

							}
, 							{
								"box" : 								{
									"id" : "obj-95",
									"maxclass" : "number",
									"numinlets" : 1,
									"numoutlets" : 2,
									"outlettype" : [ "", "bang" ],
									"parameter_enable" : 0,
									"patching_rect" : [ 321.00006103515625, 270.212005615234375, 50.0, 22.0 ]
								}

							}
, 							{
								"box" : 								{
									"id" : "obj-96",
									"maxclass" : "newobj",
									"numinlets" : 5,
									"numoutlets" : 4,
									"outlettype" : [ "int", "", "", "int" ],
									"patching_rect" : [ 238.000045776367188, 176.256134033203125, 70.333328247070312, 22.0 ],
									"text" : "counter"
								}

							}
, 							{
								"box" : 								{
									"id" : "obj-97",
									"maxclass" : "message",
									"numinlets" : 2,
									"numoutlets" : 1,
									"outlettype" : [ "" ],
									"patching_rect" : [ 198.500045776367188, 483.54547119140625, 31.0, 22.0 ],
									"text" : "stop"
								}

							}
, 							{
								"box" : 								{
									"id" : "obj-102",
									"maxclass" : "newobj",
									"numinlets" : 1,
									"numoutlets" : 2,
									"outlettype" : [ "jit_matrix", "" ],
									"patching_rect" : [ 241.833053588867188, 567.67138671875, 101.0, 22.0 ],
									"text" : "jit.record 640 480"
								}

							}
, 							{
								"box" : 								{
									"comment" : "",
									"id" : "obj-2",
									"index" : 2,
									"maxclass" : "inlet",
									"numinlets" : 0,
									"numoutlets" : 1,
									"outlettype" : [ "int" ],
									"patching_rect" : [ 236.666717529296875, 26.0, 30.0, 30.0 ]
								}

							}
, 							{
								"box" : 								{
									"comment" : "",
									"id" : "obj-1",
									"index" : 1,
									"maxclass" : "inlet",
									"numinlets" : 0,
									"numoutlets" : 1,
									"outlettype" : [ "" ],
									"patching_rect" : [ 47.333339691162109, 427.333343505859375, 30.0, 30.0 ]
								}

							}
 ],
						"lines" : [ 							{
								"patchline" : 								{
									"destination" : [ "obj-102", 0 ],
									"source" : [ "obj-1", 0 ]
								}

							}
, 							{
								"patchline" : 								{
									"destination" : [ "obj-11", 0 ],
									"source" : [ "obj-102", 1 ]
								}

							}
, 							{
								"patchline" : 								{
									"destination" : [ "obj-123", 0 ],
									"source" : [ "obj-111", 0 ]
								}

							}
, 							{
								"patchline" : 								{
									"destination" : [ "obj-125", 0 ],
									"source" : [ "obj-112", 0 ]
								}

							}
, 							{
								"patchline" : 								{
									"destination" : [ "obj-102", 0 ],
									"order" : 1,
									"source" : [ "obj-124", 0 ]
								}

							}
, 							{
								"patchline" : 								{
									"destination" : [ "obj-111", 0 ],
									"order" : 0,
									"source" : [ "obj-124", 0 ]
								}

							}
, 							{
								"patchline" : 								{
									"destination" : [ "obj-124", 0 ],
									"source" : [ "obj-125", 0 ]
								}

							}
, 							{
								"patchline" : 								{
									"destination" : [ "obj-36", 0 ],
									"order" : 1,
									"source" : [ "obj-126", 0 ]
								}

							}
, 							{
								"patchline" : 								{
									"destination" : [ "obj-96", 0 ],
									"order" : 0,
									"source" : [ "obj-126", 0 ]
								}

							}
, 							{
								"patchline" : 								{
									"destination" : [ "obj-126", 0 ],
									"source" : [ "obj-152", 0 ]
								}

							}
, 							{
								"patchline" : 								{
									"destination" : [ "obj-112", 0 ],
									"source" : [ "obj-18", 0 ]
								}

							}
, 							{
								"patchline" : 								{
									"destination" : [ "obj-95", 0 ],
									"source" : [ "obj-18", 1 ]
								}

							}
, 							{
								"patchline" : 								{
									"destination" : [ "obj-152", 0 ],
									"source" : [ "obj-2", 0 ]
								}

							}
, 							{
								"patchline" : 								{
									"destination" : [ "obj-102", 0 ],
									"source" : [ "obj-24", 0 ]
								}

							}
, 							{
								"patchline" : 								{
									"destination" : [ "obj-44", 0 ],
									"source" : [ "obj-36", 0 ]
								}

							}
, 							{
								"patchline" : 								{
									"destination" : [ "obj-45", 0 ],
									"source" : [ "obj-44", 0 ]
								}

							}
, 							{
								"patchline" : 								{
									"destination" : [ "obj-36", 0 ],
									"order" : 1,
									"source" : [ "obj-45", 2 ]
								}

							}
, 							{
								"patchline" : 								{
									"destination" : [ "obj-52", 0 ],
									"source" : [ "obj-45", 0 ]
								}

							}
, 							{
								"patchline" : 								{
									"destination" : [ "obj-97", 0 ],
									"order" : 0,
									"source" : [ "obj-45", 2 ]
								}

							}
, 							{
								"patchline" : 								{
									"destination" : [ "obj-112", 1 ],
									"source" : [ "obj-95", 0 ]
								}

							}
, 							{
								"patchline" : 								{
									"destination" : [ "obj-18", 0 ],
									"order" : 0,
									"source" : [ "obj-96", 0 ]
								}

							}
, 							{
								"patchline" : 								{
									"destination" : [ "obj-8", 0 ],
									"order" : 1,
									"source" : [ "obj-96", 0 ]
								}

							}
, 							{
								"patchline" : 								{
									"destination" : [ "obj-102", 0 ],
									"source" : [ "obj-97", 0 ]
								}

							}
 ],
						"styles" : [ 							{
								"name" : "newobjBlue-1",
								"default" : 								{
									"accentcolor" : [ 0.317647, 0.654902, 0.976471, 1.0 ]
								}
,
								"parentstyle" : "",
								"multi" : 0
							}
, 							{
								"name" : "newobjGold-1",
								"default" : 								{
									"accentcolor" : [ 0.764706, 0.592157, 0.101961, 1.0 ]
								}
,
								"parentstyle" : "",
								"multi" : 0
							}
, 							{
								"name" : "newobjGreen-1",
								"default" : 								{
									"accentcolor" : [ 0.0, 0.533333, 0.168627, 1.0 ]
								}
,
								"parentstyle" : "",
								"multi" : 0
							}
, 							{
								"name" : "newobjYellow-1",
								"default" : 								{
									"accentcolor" : [ 0.82517, 0.78181, 0.059545, 1.0 ],
									"fontsize" : [ 12.059008 ]
								}
,
								"parentstyle" : "",
								"multi" : 0
							}
, 							{
								"name" : "numberB-1",
								"default" : 								{
									"accentcolor" : [ 0.011765, 0.396078, 0.752941, 1.0 ]
								}
,
								"parentstyle" : "",
								"multi" : 0
							}
, 							{
								"name" : "numberG-1",
								"default" : 								{
									"accentcolor" : [ 0.0, 0.533333, 0.168627, 1.0 ]
								}
,
								"parentstyle" : "",
								"multi" : 0
							}
, 							{
								"name" : "numberGold-1",
								"default" : 								{
									"accentcolor" : [ 0.764706, 0.592157, 0.101961, 1.0 ]
								}
,
								"parentstyle" : "",
								"multi" : 0
							}
, 							{
								"name" : "numberR-1",
								"default" : 								{
									"accentcolor" : [ 0.784314, 0.145098, 0.023529, 1.0 ]
								}
,
								"parentstyle" : "",
								"multi" : 0
							}
, 							{
								"name" : "panelGold-1",
								"default" : 								{
									"bgfillcolor" : 									{
										"type" : "color",
										"color" : [ 0.764706, 0.592157, 0.101961, 0.25 ],
										"color1" : [ 0.764706, 0.592157, 0.101961, 1.0 ],
										"color2" : [ 0.290196, 0.309804, 0.301961, 1.0 ],
										"angle" : 270.0,
										"proportion" : 0.39,
										"autogradient" : 0
									}

								}
,
								"parentstyle" : "",
								"multi" : 0
							}
, 							{
								"name" : "texteditGold",
								"default" : 								{
									"textcolor_inverse" : [ 0.0, 0.0, 0.0, 1.0 ],
									"bgcolor" : [ 0.764706, 0.592157, 0.101961, 0.68 ]
								}
,
								"parentstyle" : "",
								"multi" : 0
							}
 ]
					}
,
					"patching_rect" : [ 489.66339111328125, 566.66339111328125, 96.0, 22.0 ],
					"saved_object_attributes" : 					{
						"description" : "",
						"digest" : "",
						"globalpatchername" : "",
						"tags" : ""
					}
,
					"text" : "p recordShadow"
				}

			}
, 			{
				"box" : 				{
					"id" : "obj-116",
					"maxclass" : "newobj",
					"numinlets" : 2,
					"numoutlets" : 1,
					"outlettype" : [ "jit_matrix" ],
					"patcher" : 					{
						"fileversion" : 1,
						"appversion" : 						{
							"major" : 8,
							"minor" : 0,
							"revision" : 3,
							"architecture" : "x64",
							"modernui" : 1
						}
,
						"classnamespace" : "box",
						"rect" : [ 651.0, 216.0, 612.0, 665.0 ],
						"bglocked" : 0,
						"openinpresentation" : 0,
						"default_fontsize" : 12.0,
						"default_fontface" : 0,
						"default_fontname" : "Arial",
						"gridonopen" : 1,
						"gridsize" : [ 15.0, 15.0 ],
						"gridsnaponopen" : 1,
						"objectsnaponopen" : 1,
						"statusbarvisible" : 2,
						"toolbarvisible" : 1,
						"lefttoolbarpinned" : 0,
						"toptoolbarpinned" : 0,
						"righttoolbarpinned" : 0,
						"bottomtoolbarpinned" : 0,
						"toolbars_unpinned_last_save" : 0,
						"tallnewobj" : 0,
						"boxanimatetime" : 200,
						"enablehscroll" : 1,
						"enablevscroll" : 1,
						"devicewidth" : 0.0,
						"description" : "",
						"digest" : "",
						"tags" : "",
						"style" : "",
						"subpatcher_template" : "",
						"boxes" : [ 							{
								"box" : 								{
									"id" : "obj-14",
									"linecount" : 2,
									"maxclass" : "comment",
									"numinlets" : 1,
									"numoutlets" : 0,
									"patching_rect" : [ 213.496749877929688, 827.8333740234375, 78.0, 33.0 ],
									"text" : "matrix\npicked video"
								}

							}
, 							{
								"box" : 								{
									"id" : "obj-11",
									"linecount" : 4,
									"maxclass" : "comment",
									"numinlets" : 1,
									"numoutlets" : 0,
									"patching_rect" : [ 338.66668701171875, 42.0, 111.0, 60.0 ],
									"text" : "int\nnumber of shadow files we currently have (recorded)"
								}

							}
, 							{
								"box" : 								{
									"id" : "obj-8",
									"maxclass" : "comment",
									"numinlets" : 1,
									"numoutlets" : 0,
									"patching_rect" : [ 127.168258666992188, 47.0, 42.996818542480469, 20.0 ],
									"text" : "bang"
								}

							}
, 							{
								"box" : 								{
									"id" : "obj-110",
									"maxclass" : "newobj",
									"numinlets" : 1,
									"numoutlets" : 0,
									"patching_rect" : [ 558.83343505859375, 553.53057861328125, 61.0, 22.0 ],
									"text" : "print ptest"
								}

							}
, 							{
								"box" : 								{
									"id" : "obj-201",
									"linecount" : 3,
									"maxclass" : "message",
									"numinlets" : 2,
									"numoutlets" : 1,
									"outlettype" : [ "" ],
									"patching_rect" : [ 330.163360595703125, 418.200653076171875, 264.0, 49.0 ],
									"text" : "read \"Macintosh HD:/Users/user/Desktop/Interactive Installation/midterm-Shadows/clips_B/0.mov\""
								}

							}
, 							{
								"box" : 								{
									"id" : "obj-197",
									"maxclass" : "number",
									"numinlets" : 1,
									"numoutlets" : 2,
									"outlettype" : [ "", "bang" ],
									"parameter_enable" : 0,
									"patching_rect" : [ 30.666667938232422, 470.867279052734375, 50.0, 22.0 ]
								}

							}
, 							{
								"box" : 								{
									"id" : "obj-198",
									"maxclass" : "newobj",
									"numinlets" : 5,
									"numoutlets" : 4,
									"outlettype" : [ "int", "", "", "int" ],
									"patching_rect" : [ 30.666667938232422, 431.533905029296875, 130.0, 22.0 ],
									"text" : "counter 5 @carryflag 1"
								}

							}
, 							{
								"box" : 								{
									"id" : "obj-199",
									"maxclass" : "newobj",
									"numinlets" : 2,
									"numoutlets" : 1,
									"outlettype" : [ "bang" ],
									"patching_rect" : [ 30.666667938232422, 400.533905029296875, 69.0, 22.0 ],
									"text" : "metro 1000"
								}

							}
, 							{
								"box" : 								{
									"id" : "obj-149",
									"maxclass" : "newobj",
									"numinlets" : 1,
									"numoutlets" : 0,
									"patching_rect" : [ 136.666671752929688, 315.200408935546875, 32.0, 22.0 ],
									"text" : "print"
								}

							}
, 							{
								"box" : 								{
									"id" : "obj-116",
									"maxclass" : "message",
									"numinlets" : 2,
									"numoutlets" : 1,
									"outlettype" : [ "" ],
									"patching_rect" : [ 284.996734619140625, 287.663543701171875, 35.0, 22.0 ],
									"text" : "clear"
								}

							}
, 							{
								"box" : 								{
									"id" : "obj-173",
									"maxclass" : "newobj",
									"numinlets" : 1,
									"numoutlets" : 2,
									"outlettype" : [ "jit_matrix", "" ],
									"patching_rect" : [ 172.496749877929688, 744.53399658203125, 232.0, 22.0 ],
									"text" : "jit.submatrix @dim 590 440 @offset 30 20"
								}

							}
, 							{
								"box" : 								{
									"id" : "obj-161",
									"maxclass" : "newobj",
									"numinlets" : 2,
									"numoutlets" : 1,
									"outlettype" : [ "bang" ],
									"patching_rect" : [ 92.660194396972656, 345.867401123046875, 56.0, 22.0 ],
									"text" : "metro 30"
								}

							}
, 							{
								"box" : 								{
									"id" : "obj-166",
									"maxclass" : "toggle",
									"numinlets" : 1,
									"numoutlets" : 1,
									"outlettype" : [ "int" ],
									"parameter_enable" : 0,
									"patching_rect" : [ 92.663490295410156, 305.533782958984375, 24.0, 24.0 ]
								}

							}
, 							{
								"box" : 								{
									"id" : "obj-127",
									"maxclass" : "number",
									"numinlets" : 1,
									"numoutlets" : 2,
									"outlettype" : [ "", "bang" ],
									"parameter_enable" : 0,
									"patching_rect" : [ 330.163360595703125, 287.663543701171875, 50.0, 22.0 ]
								}

							}
, 							{
								"box" : 								{
									"id" : "obj-117",
									"maxclass" : "button",
									"numinlets" : 1,
									"numoutlets" : 1,
									"outlettype" : [ "bang" ],
									"parameter_enable" : 0,
									"patching_rect" : [ 136.666671752929688, 211.996673583984375, 24.0, 24.0 ]
								}

							}
, 							{
								"box" : 								{
									"id" : "obj-104",
									"maxclass" : "newobj",
									"numinlets" : 1,
									"numoutlets" : 1,
									"outlettype" : [ "" ],
									"patching_rect" : [ 172.496749877929688, 375.330169677734375, 80.0, 22.0 ],
									"text" : "prepend read"
								}

							}
, 							{
								"box" : 								{
									"id" : "obj-105",
									"maxclass" : "newobj",
									"numinlets" : 1,
									"numoutlets" : 1,
									"outlettype" : [ "" ],
									"patching_rect" : [ 172.496749877929688, 287.663543701171875, 96.0, 22.0 ],
									"text" : "prepend append"
								}

							}
, 							{
								"box" : 								{
									"id" : "obj-106",
									"items" : [ "Macintosh HD:/Users/user/Desktop/Interactive Installation/midterm-Shadows/clips_B/0.mov", ",", "Macintosh HD:/Users/user/Desktop/Interactive Installation/midterm-Shadows/clips_B/0.mov", ",", "Macintosh HD:/Users/user/Desktop/Interactive Installation/midterm-Shadows/clips_B/0.mov", ",", "Macintosh HD:/Users/user/Desktop/Interactive Installation/midterm-Shadows/clips_B/0.mov", ",", "Macintosh HD:/Users/user/Desktop/Interactive Installation/midterm-Shadows/clips_B/0.mov", ",", "Macintosh HD:/Users/user/Desktop/Interactive Installation/midterm-Shadows/clips_B/0.mov", ",", "Macintosh HD:/Users/user/Desktop/Interactive Installation/midterm-Shadows/clips_B/0.mov" ],
									"maxclass" : "umenu",
									"numinlets" : 1,
									"numoutlets" : 3,
									"outlettype" : [ "int", "", "" ],
									"parameter_enable" : 0,
									"patching_rect" : [ 172.496749877929688, 339.200408935546875, 350.0, 22.0 ]
								}

							}
, 							{
								"box" : 								{
									"id" : "obj-50",
									"maxclass" : "jit.pwindow",
									"numinlets" : 1,
									"numoutlets" : 2,
									"outlettype" : [ "", "" ],
									"patching_rect" : [ 172.496749877929688, 497.996551513671875, 304.843597412109375, 231.163330078125 ]
								}

							}
, 							{
								"box" : 								{
									"id" : "obj-159",
									"maxclass" : "newobj",
									"numinlets" : 1,
									"numoutlets" : 2,
									"outlettype" : [ "jit_matrix", "" ],
									"patching_rect" : [ 172.496749877929688, 465.659881591796875, 99.0, 22.0 ],
									"text" : "jit.movie 640 480"
								}

							}
, 							{
								"box" : 								{
									"id" : "obj-157",
									"maxclass" : "newobj",
									"numinlets" : 1,
									"numoutlets" : 2,
									"outlettype" : [ "bang", "bang" ],
									"patching_rect" : [ 173.996749877929688, 169.326629638671875, 32.0, 22.0 ],
									"text" : "t b b"
								}

							}
, 							{
								"box" : 								{
									"id" : "obj-156",
									"maxclass" : "newobj",
									"numinlets" : 3,
									"numoutlets" : 2,
									"outlettype" : [ "", "" ],
									"patching_rect" : [ 172.496749877929688, 251.996551513671875, 563.0, 22.0 ],
									"text" : "combine \"Macintosh HD:/Users/user/Desktop/Interactive Installation/midterm-Shadows/clips_A/\" 0 .mov"
								}

							}
, 							{
								"box" : 								{
									"id" : "obj-155",
									"maxclass" : "newobj",
									"numinlets" : 2,
									"numoutlets" : 1,
									"outlettype" : [ "int" ],
									"patching_rect" : [ 186.996749877929688, 201.867279052734375, 133.0, 22.0 ],
									"text" : "random"
								}

							}
, 							{
								"box" : 								{
									"id" : "obj-154",
									"maxclass" : "newobj",
									"numinlets" : 2,
									"numoutlets" : 1,
									"outlettype" : [ "bang" ],
									"patching_rect" : [ 173.996749877929688, 125.333335876464844, 76.0, 22.0 ],
									"text" : "metro 12000"
								}

							}
, 							{
								"box" : 								{
									"comment" : "",
									"id" : "obj-3",
									"index" : 1,
									"maxclass" : "outlet",
									"numinlets" : 1,
									"numoutlets" : 0,
									"patching_rect" : [ 172.496749877929688, 829.3333740234375, 30.0, 30.0 ]
								}

							}
, 							{
								"box" : 								{
									"comment" : "",
									"id" : "obj-2",
									"index" : 2,
									"maxclass" : "inlet",
									"numinlets" : 0,
									"numoutlets" : 1,
									"outlettype" : [ "int" ],
									"patching_rect" : [ 300.99676513671875, 42.0, 30.0, 30.0 ]
								}

							}
, 							{
								"box" : 								{
									"comment" : "",
									"id" : "obj-1",
									"index" : 1,
									"maxclass" : "inlet",
									"numinlets" : 0,
									"numoutlets" : 1,
									"outlettype" : [ "int" ],
									"patching_rect" : [ 173.996749877929688, 42.0, 30.0, 30.0 ]
								}

							}
 ],
						"lines" : [ 							{
								"patchline" : 								{
									"destination" : [ "obj-154", 0 ],
									"source" : [ "obj-1", 0 ]
								}

							}
, 							{
								"patchline" : 								{
									"destination" : [ "obj-201", 1 ],
									"source" : [ "obj-104", 0 ]
								}

							}
, 							{
								"patchline" : 								{
									"destination" : [ "obj-106", 0 ],
									"order" : 0,
									"source" : [ "obj-105", 0 ]
								}

							}
, 							{
								"patchline" : 								{
									"destination" : [ "obj-149", 0 ],
									"order" : 1,
									"source" : [ "obj-105", 0 ]
								}

							}
, 							{
								"patchline" : 								{
									"destination" : [ "obj-104", 0 ],
									"source" : [ "obj-106", 1 ]
								}

							}
, 							{
								"patchline" : 								{
									"destination" : [ "obj-106", 0 ],
									"source" : [ "obj-116", 0 ]
								}

							}
, 							{
								"patchline" : 								{
									"destination" : [ "obj-166", 0 ],
									"source" : [ "obj-117", 0 ]
								}

							}
, 							{
								"patchline" : 								{
									"destination" : [ "obj-106", 0 ],
									"source" : [ "obj-127", 0 ]
								}

							}
, 							{
								"patchline" : 								{
									"destination" : [ "obj-157", 0 ],
									"source" : [ "obj-154", 0 ]
								}

							}
, 							{
								"patchline" : 								{
									"destination" : [ "obj-127", 0 ],
									"order" : 1,
									"source" : [ "obj-155", 0 ]
								}

							}
, 							{
								"patchline" : 								{
									"destination" : [ "obj-156", 1 ],
									"order" : 0,
									"source" : [ "obj-155", 0 ]
								}

							}
, 							{
								"patchline" : 								{
									"destination" : [ "obj-105", 0 ],
									"source" : [ "obj-156", 0 ]
								}

							}
, 							{
								"patchline" : 								{
									"destination" : [ "obj-117", 0 ],
									"order" : 1,
									"source" : [ "obj-157", 0 ]
								}

							}
, 							{
								"patchline" : 								{
									"destination" : [ "obj-155", 0 ],
									"source" : [ "obj-157", 1 ]
								}

							}
, 							{
								"patchline" : 								{
									"destination" : [ "obj-156", 0 ],
									"order" : 0,
									"source" : [ "obj-157", 0 ]
								}

							}
, 							{
								"patchline" : 								{
									"destination" : [ "obj-50", 0 ],
									"source" : [ "obj-159", 0 ]
								}

							}
, 							{
								"patchline" : 								{
									"destination" : [ "obj-159", 0 ],
									"source" : [ "obj-161", 0 ]
								}

							}
, 							{
								"patchline" : 								{
									"destination" : [ "obj-161", 0 ],
									"order" : 0,
									"source" : [ "obj-166", 0 ]
								}

							}
, 							{
								"patchline" : 								{
									"destination" : [ "obj-199", 0 ],
									"order" : 1,
									"source" : [ "obj-166", 0 ]
								}

							}
, 							{
								"patchline" : 								{
									"destination" : [ "obj-3", 0 ],
									"source" : [ "obj-173", 0 ]
								}

							}
, 							{
								"patchline" : 								{
									"destination" : [ "obj-166", 0 ],
									"source" : [ "obj-198", 2 ]
								}

							}
, 							{
								"patchline" : 								{
									"destination" : [ "obj-197", 0 ],
									"source" : [ "obj-198", 0 ]
								}

							}
, 							{
								"patchline" : 								{
									"destination" : [ "obj-198", 0 ],
									"source" : [ "obj-199", 0 ]
								}

							}
, 							{
								"patchline" : 								{
									"destination" : [ "obj-155", 1 ],
									"source" : [ "obj-2", 0 ]
								}

							}
, 							{
								"patchline" : 								{
									"destination" : [ "obj-110", 0 ],
									"order" : 0,
									"source" : [ "obj-201", 0 ]
								}

							}
, 							{
								"patchline" : 								{
									"destination" : [ "obj-159", 0 ],
									"order" : 1,
									"source" : [ "obj-201", 0 ]
								}

							}
, 							{
								"patchline" : 								{
									"destination" : [ "obj-173", 0 ],
									"source" : [ "obj-50", 0 ]
								}

							}
 ],
						"styles" : [ 							{
								"name" : "newobjBlue-1",
								"default" : 								{
									"accentcolor" : [ 0.317647, 0.654902, 0.976471, 1.0 ]
								}
,
								"parentstyle" : "",
								"multi" : 0
							}
, 							{
								"name" : "newobjGold-1",
								"default" : 								{
									"accentcolor" : [ 0.764706, 0.592157, 0.101961, 1.0 ]
								}
,
								"parentstyle" : "",
								"multi" : 0
							}
, 							{
								"name" : "newobjGreen-1",
								"default" : 								{
									"accentcolor" : [ 0.0, 0.533333, 0.168627, 1.0 ]
								}
,
								"parentstyle" : "",
								"multi" : 0
							}
, 							{
								"name" : "newobjYellow-1",
								"default" : 								{
									"accentcolor" : [ 0.82517, 0.78181, 0.059545, 1.0 ],
									"fontsize" : [ 12.059008 ]
								}
,
								"parentstyle" : "",
								"multi" : 0
							}
, 							{
								"name" : "numberB-1",
								"default" : 								{
									"accentcolor" : [ 0.011765, 0.396078, 0.752941, 1.0 ]
								}
,
								"parentstyle" : "",
								"multi" : 0
							}
, 							{
								"name" : "numberG-1",
								"default" : 								{
									"accentcolor" : [ 0.0, 0.533333, 0.168627, 1.0 ]
								}
,
								"parentstyle" : "",
								"multi" : 0
							}
, 							{
								"name" : "numberGold-1",
								"default" : 								{
									"accentcolor" : [ 0.764706, 0.592157, 0.101961, 1.0 ]
								}
,
								"parentstyle" : "",
								"multi" : 0
							}
, 							{
								"name" : "numberR-1",
								"default" : 								{
									"accentcolor" : [ 0.784314, 0.145098, 0.023529, 1.0 ]
								}
,
								"parentstyle" : "",
								"multi" : 0
							}
, 							{
								"name" : "panelGold-1",
								"default" : 								{
									"bgfillcolor" : 									{
										"type" : "color",
										"color" : [ 0.764706, 0.592157, 0.101961, 0.25 ],
										"color1" : [ 0.764706, 0.592157, 0.101961, 1.0 ],
										"color2" : [ 0.290196, 0.309804, 0.301961, 1.0 ],
										"angle" : 270.0,
										"proportion" : 0.39,
										"autogradient" : 0
									}

								}
,
								"parentstyle" : "",
								"multi" : 0
							}
, 							{
								"name" : "texteditGold",
								"default" : 								{
									"textcolor_inverse" : [ 0.0, 0.0, 0.0, 1.0 ],
									"bgcolor" : [ 0.764706, 0.592157, 0.101961, 0.68 ]
								}
,
								"parentstyle" : "",
								"multi" : 0
							}
 ]
					}
,
					"patching_rect" : [ 323.15216064453125, 606.33343505859375, 116.0, 22.0 ],
					"saved_object_attributes" : 					{
						"description" : "",
						"digest" : "",
						"globalpatchername" : "",
						"tags" : ""
					}
,
					"text" : "p triggerShadowFIle"
				}

			}
, 			{
				"box" : 				{
					"id" : "obj-115",
					"maxclass" : "newobj",
					"numinlets" : 2,
					"numoutlets" : 1,
					"outlettype" : [ "int" ],
					"patcher" : 					{
						"fileversion" : 1,
						"appversion" : 						{
							"major" : 8,
							"minor" : 0,
							"revision" : 3,
							"architecture" : "x64",
							"modernui" : 1
						}
,
						"classnamespace" : "box",
						"rect" : [ 777.0, 145.0, 553.0, 608.0 ],
						"bglocked" : 0,
						"openinpresentation" : 0,
						"default_fontsize" : 12.0,
						"default_fontface" : 0,
						"default_fontname" : "Arial",
						"gridonopen" : 1,
						"gridsize" : [ 15.0, 15.0 ],
						"gridsnaponopen" : 1,
						"objectsnaponopen" : 1,
						"statusbarvisible" : 2,
						"toolbarvisible" : 1,
						"lefttoolbarpinned" : 0,
						"toptoolbarpinned" : 0,
						"righttoolbarpinned" : 0,
						"bottomtoolbarpinned" : 0,
						"toolbars_unpinned_last_save" : 0,
						"tallnewobj" : 0,
						"boxanimatetime" : 200,
						"enablehscroll" : 1,
						"enablevscroll" : 1,
						"devicewidth" : 0.0,
						"description" : "",
						"digest" : "",
						"tags" : "",
						"style" : "",
						"subpatcher_template" : "",
						"boxes" : [ 							{
								"box" : 								{
									"id" : "obj-10",
									"linecount" : 3,
									"maxclass" : "comment",
									"numinlets" : 1,
									"numoutlets" : 0,
									"patching_rect" : [ 248.500045776367188, 689.0452880859375, 112.666664123535156, 47.0 ],
									"text" : "int\ncurrent number of Shadows recorded"
								}

							}
, 							{
								"box" : 								{
									"comment" : "",
									"id" : "obj-8",
									"index" : 1,
									"maxclass" : "outlet",
									"numinlets" : 1,
									"numoutlets" : 0,
									"patching_rect" : [ 203.499710083007812, 689.0452880859375, 30.0, 30.0 ]
								}

							}
, 							{
								"box" : 								{
									"id" : "obj-152",
									"maxclass" : "newobj",
									"numinlets" : 2,
									"numoutlets" : 1,
									"outlettype" : [ "bang" ],
									"patching_rect" : [ 238.000045776367188, 84.333335876464844, 76.0, 22.0 ],
									"text" : "metro 10000"
								}

							}
, 							{
								"box" : 								{
									"id" : "obj-7",
									"maxclass" : "comment",
									"numinlets" : 1,
									"numoutlets" : 0,
									"patching_rect" : [ 276.1669921875, 31.0, 41.499725341796875, 20.0 ],
									"text" : "bang"
								}

							}
, 							{
								"box" : 								{
									"id" : "obj-52",
									"maxclass" : "number",
									"numinlets" : 1,
									"numoutlets" : 2,
									"outlettype" : [ "", "bang" ],
									"parameter_enable" : 0,
									"patching_rect" : [ 90.666671752929688, 332.04547119140625, 50.0, 22.0 ]
								}

							}
, 							{
								"box" : 								{
									"id" : "obj-45",
									"maxclass" : "newobj",
									"numinlets" : 5,
									"numoutlets" : 4,
									"outlettype" : [ "int", "", "", "int" ],
									"patching_rect" : [ 90.666671752929688, 292.712127685546875, 130.0, 22.0 ],
									"text" : "counter 6 @carryflag 1"
								}

							}
, 							{
								"box" : 								{
									"id" : "obj-44",
									"maxclass" : "newobj",
									"numinlets" : 2,
									"numoutlets" : 1,
									"outlettype" : [ "bang" ],
									"patching_rect" : [ 90.666671752929688, 261.712127685546875, 69.0, 22.0 ],
									"text" : "metro 1000"
								}

							}
, 							{
								"box" : 								{
									"id" : "obj-36",
									"maxclass" : "toggle",
									"numinlets" : 1,
									"numoutlets" : 1,
									"outlettype" : [ "int" ],
									"parameter_enable" : 0,
									"patching_rect" : [ 90.666671752929688, 223.712127685546875, 24.0, 24.0 ]
								}

							}
, 							{
								"box" : 								{
									"id" : "obj-18",
									"maxclass" : "newobj",
									"numinlets" : 1,
									"numoutlets" : 2,
									"outlettype" : [ "bang", "int" ],
									"patching_rect" : [ 238.000045776367188, 211.711944580078125, 63.5, 22.0 ],
									"text" : "t b i"
								}

							}
, 							{
								"box" : 								{
									"id" : "obj-24",
									"maxclass" : "message",
									"numinlets" : 2,
									"numoutlets" : 1,
									"outlettype" : [ "" ],
									"patching_rect" : [ 165.000045776367188, 519.71209716796875, 34.0, 22.0 ],
									"text" : "write"
								}

							}
, 							{
								"box" : 								{
									"id" : "obj-11",
									"maxclass" : "newobj",
									"numinlets" : 1,
									"numoutlets" : 0,
									"patching_rect" : [ 323.83306884765625, 614.37884521484375, 91.0, 22.0 ],
									"text" : "print @popup 1"
								}

							}
, 							{
								"box" : 								{
									"id" : "obj-125",
									"maxclass" : "newobj",
									"numinlets" : 1,
									"numoutlets" : 1,
									"outlettype" : [ "" ],
									"patching_rect" : [ 238.000045776367188, 363.54547119140625, 99.0, 22.0 ],
									"text" : "append 30. h264"
								}

							}
, 							{
								"box" : 								{
									"id" : "obj-112",
									"maxclass" : "newobj",
									"numinlets" : 3,
									"numoutlets" : 2,
									"outlettype" : [ "", "" ],
									"patching_rect" : [ 238.000045776367188, 325.04547119140625, 171.0, 22.0 ],
									"text" : "combine test_vids_A/ idx .mov"
								}

							}
, 							{
								"box" : 								{
									"id" : "obj-126",
									"maxclass" : "button",
									"numinlets" : 1,
									"numoutlets" : 1,
									"outlettype" : [ "bang" ],
									"parameter_enable" : 0,
									"patching_rect" : [ 238.000045776367188, 125.333335876464844, 24.0, 24.0 ]
								}

							}
, 							{
								"box" : 								{
									"id" : "obj-124",
									"maxclass" : "newobj",
									"numinlets" : 1,
									"numoutlets" : 1,
									"outlettype" : [ "" ],
									"patching_rect" : [ 238.000045776367188, 401.04876708984375, 81.0, 22.0 ],
									"text" : "prepend write"
								}

							}
, 							{
								"box" : 								{
									"id" : "obj-123",
									"linecount" : 2,
									"maxclass" : "message",
									"numinlets" : 2,
									"numoutlets" : 1,
									"outlettype" : [ "" ],
									"patching_rect" : [ 333.00006103515625, 495.54547119140625, 166.0, 35.0 ],
									"text" : "write test_vids_A/1.mov 30. h264"
								}

							}
, 							{
								"box" : 								{
									"id" : "obj-111",
									"maxclass" : "newobj",
									"numinlets" : 1,
									"numoutlets" : 1,
									"outlettype" : [ "" ],
									"patching_rect" : [ 333.00006103515625, 465.54547119140625, 128.0, 22.0 ],
									"text" : "prepend set"
								}

							}
, 							{
								"box" : 								{
									"id" : "obj-95",
									"maxclass" : "number",
									"numinlets" : 1,
									"numoutlets" : 2,
									"outlettype" : [ "", "bang" ],
									"parameter_enable" : 0,
									"patching_rect" : [ 321.00006103515625, 270.212005615234375, 50.0, 22.0 ]
								}

							}
, 							{
								"box" : 								{
									"id" : "obj-96",
									"maxclass" : "newobj",
									"numinlets" : 5,
									"numoutlets" : 4,
									"outlettype" : [ "int", "", "", "int" ],
									"patching_rect" : [ 238.000045776367188, 176.256134033203125, 70.333328247070312, 22.0 ],
									"text" : "counter"
								}

							}
, 							{
								"box" : 								{
									"id" : "obj-97",
									"maxclass" : "message",
									"numinlets" : 2,
									"numoutlets" : 1,
									"outlettype" : [ "" ],
									"patching_rect" : [ 198.500045776367188, 483.54547119140625, 31.0, 22.0 ],
									"text" : "stop"
								}

							}
, 							{
								"box" : 								{
									"id" : "obj-102",
									"maxclass" : "newobj",
									"numinlets" : 1,
									"numoutlets" : 2,
									"outlettype" : [ "jit_matrix", "" ],
									"patching_rect" : [ 241.833053588867188, 567.67138671875, 101.0, 22.0 ],
									"text" : "jit.record 640 480"
								}

							}
, 							{
								"box" : 								{
									"comment" : "",
									"id" : "obj-2",
									"index" : 2,
									"maxclass" : "inlet",
									"numinlets" : 0,
									"numoutlets" : 1,
									"outlettype" : [ "int" ],
									"patching_rect" : [ 236.666717529296875, 26.0, 30.0, 30.0 ]
								}

							}
, 							{
								"box" : 								{
									"comment" : "",
									"id" : "obj-1",
									"index" : 1,
									"maxclass" : "inlet",
									"numinlets" : 0,
									"numoutlets" : 1,
									"outlettype" : [ "" ],
									"patching_rect" : [ 47.333339691162109, 427.333343505859375, 30.0, 30.0 ]
								}

							}
 ],
						"lines" : [ 							{
								"patchline" : 								{
									"destination" : [ "obj-102", 0 ],
									"source" : [ "obj-1", 0 ]
								}

							}
, 							{
								"patchline" : 								{
									"destination" : [ "obj-11", 0 ],
									"source" : [ "obj-102", 1 ]
								}

							}
, 							{
								"patchline" : 								{
									"destination" : [ "obj-123", 0 ],
									"source" : [ "obj-111", 0 ]
								}

							}
, 							{
								"patchline" : 								{
									"destination" : [ "obj-125", 0 ],
									"source" : [ "obj-112", 0 ]
								}

							}
, 							{
								"patchline" : 								{
									"destination" : [ "obj-102", 0 ],
									"order" : 1,
									"source" : [ "obj-124", 0 ]
								}

							}
, 							{
								"patchline" : 								{
									"destination" : [ "obj-111", 0 ],
									"order" : 0,
									"source" : [ "obj-124", 0 ]
								}

							}
, 							{
								"patchline" : 								{
									"destination" : [ "obj-124", 0 ],
									"source" : [ "obj-125", 0 ]
								}

							}
, 							{
								"patchline" : 								{
									"destination" : [ "obj-36", 0 ],
									"order" : 1,
									"source" : [ "obj-126", 0 ]
								}

							}
, 							{
								"patchline" : 								{
									"destination" : [ "obj-96", 0 ],
									"order" : 0,
									"source" : [ "obj-126", 0 ]
								}

							}
, 							{
								"patchline" : 								{
									"destination" : [ "obj-126", 0 ],
									"source" : [ "obj-152", 0 ]
								}

							}
, 							{
								"patchline" : 								{
									"destination" : [ "obj-112", 0 ],
									"source" : [ "obj-18", 0 ]
								}

							}
, 							{
								"patchline" : 								{
									"destination" : [ "obj-95", 0 ],
									"source" : [ "obj-18", 1 ]
								}

							}
, 							{
								"patchline" : 								{
									"destination" : [ "obj-152", 0 ],
									"source" : [ "obj-2", 0 ]
								}

							}
, 							{
								"patchline" : 								{
									"destination" : [ "obj-102", 0 ],
									"source" : [ "obj-24", 0 ]
								}

							}
, 							{
								"patchline" : 								{
									"destination" : [ "obj-44", 0 ],
									"source" : [ "obj-36", 0 ]
								}

							}
, 							{
								"patchline" : 								{
									"destination" : [ "obj-45", 0 ],
									"source" : [ "obj-44", 0 ]
								}

							}
, 							{
								"patchline" : 								{
									"destination" : [ "obj-36", 0 ],
									"order" : 1,
									"source" : [ "obj-45", 2 ]
								}

							}
, 							{
								"patchline" : 								{
									"destination" : [ "obj-52", 0 ],
									"source" : [ "obj-45", 0 ]
								}

							}
, 							{
								"patchline" : 								{
									"destination" : [ "obj-97", 0 ],
									"order" : 0,
									"source" : [ "obj-45", 2 ]
								}

							}
, 							{
								"patchline" : 								{
									"destination" : [ "obj-112", 1 ],
									"source" : [ "obj-95", 0 ]
								}

							}
, 							{
								"patchline" : 								{
									"destination" : [ "obj-18", 0 ],
									"order" : 0,
									"source" : [ "obj-96", 0 ]
								}

							}
, 							{
								"patchline" : 								{
									"destination" : [ "obj-8", 0 ],
									"order" : 1,
									"source" : [ "obj-96", 0 ]
								}

							}
, 							{
								"patchline" : 								{
									"destination" : [ "obj-102", 0 ],
									"source" : [ "obj-97", 0 ]
								}

							}
 ],
						"styles" : [ 							{
								"name" : "newobjBlue-1",
								"default" : 								{
									"accentcolor" : [ 0.317647, 0.654902, 0.976471, 1.0 ]
								}
,
								"parentstyle" : "",
								"multi" : 0
							}
, 							{
								"name" : "newobjGold-1",
								"default" : 								{
									"accentcolor" : [ 0.764706, 0.592157, 0.101961, 1.0 ]
								}
,
								"parentstyle" : "",
								"multi" : 0
							}
, 							{
								"name" : "newobjGreen-1",
								"default" : 								{
									"accentcolor" : [ 0.0, 0.533333, 0.168627, 1.0 ]
								}
,
								"parentstyle" : "",
								"multi" : 0
							}
, 							{
								"name" : "newobjYellow-1",
								"default" : 								{
									"accentcolor" : [ 0.82517, 0.78181, 0.059545, 1.0 ],
									"fontsize" : [ 12.059008 ]
								}
,
								"parentstyle" : "",
								"multi" : 0
							}
, 							{
								"name" : "numberB-1",
								"default" : 								{
									"accentcolor" : [ 0.011765, 0.396078, 0.752941, 1.0 ]
								}
,
								"parentstyle" : "",
								"multi" : 0
							}
, 							{
								"name" : "numberG-1",
								"default" : 								{
									"accentcolor" : [ 0.0, 0.533333, 0.168627, 1.0 ]
								}
,
								"parentstyle" : "",
								"multi" : 0
							}
, 							{
								"name" : "numberGold-1",
								"default" : 								{
									"accentcolor" : [ 0.764706, 0.592157, 0.101961, 1.0 ]
								}
,
								"parentstyle" : "",
								"multi" : 0
							}
, 							{
								"name" : "numberR-1",
								"default" : 								{
									"accentcolor" : [ 0.784314, 0.145098, 0.023529, 1.0 ]
								}
,
								"parentstyle" : "",
								"multi" : 0
							}
, 							{
								"name" : "panelGold-1",
								"default" : 								{
									"bgfillcolor" : 									{
										"type" : "color",
										"color" : [ 0.764706, 0.592157, 0.101961, 0.25 ],
										"color1" : [ 0.764706, 0.592157, 0.101961, 1.0 ],
										"color2" : [ 0.290196, 0.309804, 0.301961, 1.0 ],
										"angle" : 270.0,
										"proportion" : 0.39,
										"autogradient" : 0
									}

								}
,
								"parentstyle" : "",
								"multi" : 0
							}
, 							{
								"name" : "texteditGold",
								"default" : 								{
									"textcolor_inverse" : [ 0.0, 0.0, 0.0, 1.0 ],
									"bgcolor" : [ 0.764706, 0.592157, 0.101961, 0.68 ]
								}
,
								"parentstyle" : "",
								"multi" : 0
							}
 ]
					}
,
					"patching_rect" : [ 1337.5, 770.3333740234375, 96.0, 22.0 ],
					"saved_object_attributes" : 					{
						"description" : "",
						"digest" : "",
						"globalpatchername" : "",
						"tags" : ""
					}
,
					"text" : "p recordShadow"
				}

			}
, 			{
				"box" : 				{
					"id" : "obj-113",
					"maxclass" : "newobj",
					"numinlets" : 2,
					"numoutlets" : 1,
					"outlettype" : [ "jit_matrix" ],
					"patcher" : 					{
						"fileversion" : 1,
						"appversion" : 						{
							"major" : 8,
							"minor" : 0,
							"revision" : 3,
							"architecture" : "x64",
							"modernui" : 1
						}
,
						"classnamespace" : "box",
						"rect" : [ 651.0, 216.0, 612.0, 665.0 ],
						"bglocked" : 0,
						"openinpresentation" : 0,
						"default_fontsize" : 12.0,
						"default_fontface" : 0,
						"default_fontname" : "Arial",
						"gridonopen" : 1,
						"gridsize" : [ 15.0, 15.0 ],
						"gridsnaponopen" : 1,
						"objectsnaponopen" : 1,
						"statusbarvisible" : 2,
						"toolbarvisible" : 1,
						"lefttoolbarpinned" : 0,
						"toptoolbarpinned" : 0,
						"righttoolbarpinned" : 0,
						"bottomtoolbarpinned" : 0,
						"toolbars_unpinned_last_save" : 0,
						"tallnewobj" : 0,
						"boxanimatetime" : 200,
						"enablehscroll" : 1,
						"enablevscroll" : 1,
						"devicewidth" : 0.0,
						"description" : "",
						"digest" : "",
						"tags" : "",
						"style" : "",
						"subpatcher_template" : "",
						"boxes" : [ 							{
								"box" : 								{
									"id" : "obj-14",
									"linecount" : 2,
									"maxclass" : "comment",
									"numinlets" : 1,
									"numoutlets" : 0,
									"patching_rect" : [ 213.496749877929688, 827.8333740234375, 78.0, 33.0 ],
									"text" : "matrix\npicked video"
								}

							}
, 							{
								"box" : 								{
									"id" : "obj-11",
									"linecount" : 4,
									"maxclass" : "comment",
									"numinlets" : 1,
									"numoutlets" : 0,
									"patching_rect" : [ 338.66668701171875, 42.0, 108.666664123535156, 60.0 ],
									"text" : "int\nnumber of shadow files we currently have (recorded)"
								}

							}
, 							{
								"box" : 								{
									"id" : "obj-8",
									"maxclass" : "comment",
									"numinlets" : 1,
									"numoutlets" : 0,
									"patching_rect" : [ 127.168258666992188, 47.0, 42.996818542480469, 20.0 ],
									"text" : "bang"
								}

							}
, 							{
								"box" : 								{
									"id" : "obj-110",
									"maxclass" : "newobj",
									"numinlets" : 1,
									"numoutlets" : 0,
									"patching_rect" : [ 558.83343505859375, 553.53057861328125, 61.0, 22.0 ],
									"text" : "print ptest"
								}

							}
, 							{
								"box" : 								{
									"id" : "obj-201",
									"linecount" : 3,
									"maxclass" : "message",
									"numinlets" : 2,
									"numoutlets" : 1,
									"outlettype" : [ "" ],
									"patching_rect" : [ 330.163360595703125, 418.200653076171875, 264.0, 49.0 ],
									"text" : "read \"Macintosh HD:/Users/user/Desktop/Interactive Installation/midterm-Shadows/clips_B/0.mov\""
								}

							}
, 							{
								"box" : 								{
									"id" : "obj-197",
									"maxclass" : "number",
									"numinlets" : 1,
									"numoutlets" : 2,
									"outlettype" : [ "", "bang" ],
									"parameter_enable" : 0,
									"patching_rect" : [ 30.666667938232422, 470.867279052734375, 50.0, 22.0 ]
								}

							}
, 							{
								"box" : 								{
									"id" : "obj-198",
									"maxclass" : "newobj",
									"numinlets" : 5,
									"numoutlets" : 4,
									"outlettype" : [ "int", "", "", "int" ],
									"patching_rect" : [ 30.666667938232422, 431.533905029296875, 130.0, 22.0 ],
									"text" : "counter 5 @carryflag 1"
								}

							}
, 							{
								"box" : 								{
									"id" : "obj-199",
									"maxclass" : "newobj",
									"numinlets" : 2,
									"numoutlets" : 1,
									"outlettype" : [ "bang" ],
									"patching_rect" : [ 30.666667938232422, 400.533905029296875, 69.0, 22.0 ],
									"text" : "metro 1000"
								}

							}
, 							{
								"box" : 								{
									"id" : "obj-149",
									"maxclass" : "newobj",
									"numinlets" : 1,
									"numoutlets" : 0,
									"patching_rect" : [ 136.666671752929688, 315.200408935546875, 32.0, 22.0 ],
									"text" : "print"
								}

							}
, 							{
								"box" : 								{
									"id" : "obj-116",
									"maxclass" : "message",
									"numinlets" : 2,
									"numoutlets" : 1,
									"outlettype" : [ "" ],
									"patching_rect" : [ 284.996734619140625, 287.663543701171875, 35.0, 22.0 ],
									"text" : "clear"
								}

							}
, 							{
								"box" : 								{
									"id" : "obj-173",
									"maxclass" : "newobj",
									"numinlets" : 1,
									"numoutlets" : 2,
									"outlettype" : [ "jit_matrix", "" ],
									"patching_rect" : [ 172.496749877929688, 744.53399658203125, 232.0, 22.0 ],
									"text" : "jit.submatrix @dim 590 440 @offset 30 20"
								}

							}
, 							{
								"box" : 								{
									"id" : "obj-161",
									"maxclass" : "newobj",
									"numinlets" : 2,
									"numoutlets" : 1,
									"outlettype" : [ "bang" ],
									"patching_rect" : [ 92.660194396972656, 345.867401123046875, 56.0, 22.0 ],
									"text" : "metro 30"
								}

							}
, 							{
								"box" : 								{
									"id" : "obj-166",
									"maxclass" : "toggle",
									"numinlets" : 1,
									"numoutlets" : 1,
									"outlettype" : [ "int" ],
									"parameter_enable" : 0,
									"patching_rect" : [ 92.663490295410156, 305.533782958984375, 24.0, 24.0 ]
								}

							}
, 							{
								"box" : 								{
									"id" : "obj-127",
									"maxclass" : "number",
									"numinlets" : 1,
									"numoutlets" : 2,
									"outlettype" : [ "", "bang" ],
									"parameter_enable" : 0,
									"patching_rect" : [ 330.163360595703125, 287.663543701171875, 50.0, 22.0 ]
								}

							}
, 							{
								"box" : 								{
									"id" : "obj-117",
									"maxclass" : "button",
									"numinlets" : 1,
									"numoutlets" : 1,
									"outlettype" : [ "bang" ],
									"parameter_enable" : 0,
									"patching_rect" : [ 136.666671752929688, 211.996673583984375, 24.0, 24.0 ]
								}

							}
, 							{
								"box" : 								{
									"id" : "obj-104",
									"maxclass" : "newobj",
									"numinlets" : 1,
									"numoutlets" : 1,
									"outlettype" : [ "" ],
									"patching_rect" : [ 172.496749877929688, 375.330169677734375, 80.0, 22.0 ],
									"text" : "prepend read"
								}

							}
, 							{
								"box" : 								{
									"id" : "obj-105",
									"maxclass" : "newobj",
									"numinlets" : 1,
									"numoutlets" : 1,
									"outlettype" : [ "" ],
									"patching_rect" : [ 172.496749877929688, 287.663543701171875, 96.0, 22.0 ],
									"text" : "prepend append"
								}

							}
, 							{
								"box" : 								{
									"id" : "obj-106",
									"items" : [ "Macintosh HD:/Users/user/Desktop/Interactive Installation/midterm-Shadows/clips_B/0.mov", ",", "Macintosh HD:/Users/user/Desktop/Interactive Installation/midterm-Shadows/clips_B/0.mov", ",", "Macintosh HD:/Users/user/Desktop/Interactive Installation/midterm-Shadows/clips_B/0.mov", ",", "Macintosh HD:/Users/user/Desktop/Interactive Installation/midterm-Shadows/clips_B/0.mov", ",", "Macintosh HD:/Users/user/Desktop/Interactive Installation/midterm-Shadows/clips_B/0.mov", ",", "Macintosh HD:/Users/user/Desktop/Interactive Installation/midterm-Shadows/clips_B/0.mov", ",", "Macintosh HD:/Users/user/Desktop/Interactive Installation/midterm-Shadows/clips_B/0.mov" ],
									"maxclass" : "umenu",
									"numinlets" : 1,
									"numoutlets" : 3,
									"outlettype" : [ "int", "", "" ],
									"parameter_enable" : 0,
									"patching_rect" : [ 172.496749877929688, 339.200408935546875, 350.0, 22.0 ]
								}

							}
, 							{
								"box" : 								{
									"id" : "obj-50",
									"maxclass" : "jit.pwindow",
									"numinlets" : 1,
									"numoutlets" : 2,
									"outlettype" : [ "", "" ],
									"patching_rect" : [ 172.496749877929688, 497.996551513671875, 304.843597412109375, 231.163330078125 ]
								}

							}
, 							{
								"box" : 								{
									"id" : "obj-159",
									"maxclass" : "newobj",
									"numinlets" : 1,
									"numoutlets" : 2,
									"outlettype" : [ "jit_matrix", "" ],
									"patching_rect" : [ 172.496749877929688, 465.659881591796875, 99.0, 22.0 ],
									"text" : "jit.movie 640 480"
								}

							}
, 							{
								"box" : 								{
									"id" : "obj-157",
									"maxclass" : "newobj",
									"numinlets" : 1,
									"numoutlets" : 2,
									"outlettype" : [ "bang", "bang" ],
									"patching_rect" : [ 173.996749877929688, 169.326629638671875, 32.0, 22.0 ],
									"text" : "t b b"
								}

							}
, 							{
								"box" : 								{
									"id" : "obj-156",
									"maxclass" : "newobj",
									"numinlets" : 3,
									"numoutlets" : 2,
									"outlettype" : [ "", "" ],
									"patching_rect" : [ 172.496749877929688, 251.996551513671875, 557.0, 22.0 ],
									"text" : "combine \"Macintosh HD:/Users/user/Desktop/Interactive Installation/midterm-Shadows/clips_B/\" 0 .mov"
								}

							}
, 							{
								"box" : 								{
									"id" : "obj-155",
									"maxclass" : "newobj",
									"numinlets" : 2,
									"numoutlets" : 1,
									"outlettype" : [ "int" ],
									"patching_rect" : [ 186.996749877929688, 201.867279052734375, 133.0, 22.0 ],
									"text" : "random"
								}

							}
, 							{
								"box" : 								{
									"id" : "obj-154",
									"maxclass" : "newobj",
									"numinlets" : 2,
									"numoutlets" : 1,
									"outlettype" : [ "bang" ],
									"patching_rect" : [ 173.996749877929688, 125.333335876464844, 76.0, 22.0 ],
									"text" : "metro 12000"
								}

							}
, 							{
								"box" : 								{
									"comment" : "",
									"id" : "obj-3",
									"index" : 1,
									"maxclass" : "outlet",
									"numinlets" : 1,
									"numoutlets" : 0,
									"patching_rect" : [ 172.496749877929688, 829.3333740234375, 30.0, 30.0 ]
								}

							}
, 							{
								"box" : 								{
									"comment" : "",
									"id" : "obj-2",
									"index" : 2,
									"maxclass" : "inlet",
									"numinlets" : 0,
									"numoutlets" : 1,
									"outlettype" : [ "int" ],
									"patching_rect" : [ 300.99676513671875, 42.0, 30.0, 30.0 ]
								}

							}
, 							{
								"box" : 								{
									"comment" : "",
									"id" : "obj-1",
									"index" : 1,
									"maxclass" : "inlet",
									"numinlets" : 0,
									"numoutlets" : 1,
									"outlettype" : [ "int" ],
									"patching_rect" : [ 173.996749877929688, 42.0, 30.0, 30.0 ]
								}

							}
 ],
						"lines" : [ 							{
								"patchline" : 								{
									"destination" : [ "obj-154", 0 ],
									"source" : [ "obj-1", 0 ]
								}

							}
, 							{
								"patchline" : 								{
									"destination" : [ "obj-201", 1 ],
									"source" : [ "obj-104", 0 ]
								}

							}
, 							{
								"patchline" : 								{
									"destination" : [ "obj-106", 0 ],
									"order" : 0,
									"source" : [ "obj-105", 0 ]
								}

							}
, 							{
								"patchline" : 								{
									"destination" : [ "obj-149", 0 ],
									"order" : 1,
									"source" : [ "obj-105", 0 ]
								}

							}
, 							{
								"patchline" : 								{
									"destination" : [ "obj-104", 0 ],
									"source" : [ "obj-106", 1 ]
								}

							}
, 							{
								"patchline" : 								{
									"destination" : [ "obj-106", 0 ],
									"source" : [ "obj-116", 0 ]
								}

							}
, 							{
								"patchline" : 								{
									"destination" : [ "obj-166", 0 ],
									"source" : [ "obj-117", 0 ]
								}

							}
, 							{
								"patchline" : 								{
									"destination" : [ "obj-106", 0 ],
									"source" : [ "obj-127", 0 ]
								}

							}
, 							{
								"patchline" : 								{
									"destination" : [ "obj-157", 0 ],
									"source" : [ "obj-154", 0 ]
								}

							}
, 							{
								"patchline" : 								{
									"destination" : [ "obj-127", 0 ],
									"order" : 1,
									"source" : [ "obj-155", 0 ]
								}

							}
, 							{
								"patchline" : 								{
									"destination" : [ "obj-156", 1 ],
									"order" : 0,
									"source" : [ "obj-155", 0 ]
								}

							}
, 							{
								"patchline" : 								{
									"destination" : [ "obj-105", 0 ],
									"source" : [ "obj-156", 0 ]
								}

							}
, 							{
								"patchline" : 								{
									"destination" : [ "obj-117", 0 ],
									"order" : 1,
									"source" : [ "obj-157", 0 ]
								}

							}
, 							{
								"patchline" : 								{
									"destination" : [ "obj-155", 0 ],
									"source" : [ "obj-157", 1 ]
								}

							}
, 							{
								"patchline" : 								{
									"destination" : [ "obj-156", 0 ],
									"order" : 0,
									"source" : [ "obj-157", 0 ]
								}

							}
, 							{
								"patchline" : 								{
									"destination" : [ "obj-50", 0 ],
									"source" : [ "obj-159", 0 ]
								}

							}
, 							{
								"patchline" : 								{
									"destination" : [ "obj-159", 0 ],
									"source" : [ "obj-161", 0 ]
								}

							}
, 							{
								"patchline" : 								{
									"destination" : [ "obj-161", 0 ],
									"order" : 0,
									"source" : [ "obj-166", 0 ]
								}

							}
, 							{
								"patchline" : 								{
									"destination" : [ "obj-199", 0 ],
									"order" : 1,
									"source" : [ "obj-166", 0 ]
								}

							}
, 							{
								"patchline" : 								{
									"destination" : [ "obj-3", 0 ],
									"source" : [ "obj-173", 0 ]
								}

							}
, 							{
								"patchline" : 								{
									"destination" : [ "obj-166", 0 ],
									"source" : [ "obj-198", 2 ]
								}

							}
, 							{
								"patchline" : 								{
									"destination" : [ "obj-197", 0 ],
									"source" : [ "obj-198", 0 ]
								}

							}
, 							{
								"patchline" : 								{
									"destination" : [ "obj-198", 0 ],
									"source" : [ "obj-199", 0 ]
								}

							}
, 							{
								"patchline" : 								{
									"destination" : [ "obj-155", 1 ],
									"source" : [ "obj-2", 0 ]
								}

							}
, 							{
								"patchline" : 								{
									"destination" : [ "obj-110", 0 ],
									"order" : 0,
									"source" : [ "obj-201", 0 ]
								}

							}
, 							{
								"patchline" : 								{
									"destination" : [ "obj-159", 0 ],
									"order" : 1,
									"source" : [ "obj-201", 0 ]
								}

							}
, 							{
								"patchline" : 								{
									"destination" : [ "obj-173", 0 ],
									"source" : [ "obj-50", 0 ]
								}

							}
 ],
						"styles" : [ 							{
								"name" : "newobjBlue-1",
								"default" : 								{
									"accentcolor" : [ 0.317647, 0.654902, 0.976471, 1.0 ]
								}
,
								"parentstyle" : "",
								"multi" : 0
							}
, 							{
								"name" : "newobjGold-1",
								"default" : 								{
									"accentcolor" : [ 0.764706, 0.592157, 0.101961, 1.0 ]
								}
,
								"parentstyle" : "",
								"multi" : 0
							}
, 							{
								"name" : "newobjGreen-1",
								"default" : 								{
									"accentcolor" : [ 0.0, 0.533333, 0.168627, 1.0 ]
								}
,
								"parentstyle" : "",
								"multi" : 0
							}
, 							{
								"name" : "newobjYellow-1",
								"default" : 								{
									"accentcolor" : [ 0.82517, 0.78181, 0.059545, 1.0 ],
									"fontsize" : [ 12.059008 ]
								}
,
								"parentstyle" : "",
								"multi" : 0
							}
, 							{
								"name" : "numberB-1",
								"default" : 								{
									"accentcolor" : [ 0.011765, 0.396078, 0.752941, 1.0 ]
								}
,
								"parentstyle" : "",
								"multi" : 0
							}
, 							{
								"name" : "numberG-1",
								"default" : 								{
									"accentcolor" : [ 0.0, 0.533333, 0.168627, 1.0 ]
								}
,
								"parentstyle" : "",
								"multi" : 0
							}
, 							{
								"name" : "numberGold-1",
								"default" : 								{
									"accentcolor" : [ 0.764706, 0.592157, 0.101961, 1.0 ]
								}
,
								"parentstyle" : "",
								"multi" : 0
							}
, 							{
								"name" : "numberR-1",
								"default" : 								{
									"accentcolor" : [ 0.784314, 0.145098, 0.023529, 1.0 ]
								}
,
								"parentstyle" : "",
								"multi" : 0
							}
, 							{
								"name" : "panelGold-1",
								"default" : 								{
									"bgfillcolor" : 									{
										"type" : "color",
										"color" : [ 0.764706, 0.592157, 0.101961, 0.25 ],
										"color1" : [ 0.764706, 0.592157, 0.101961, 1.0 ],
										"color2" : [ 0.290196, 0.309804, 0.301961, 1.0 ],
										"angle" : 270.0,
										"proportion" : 0.39,
										"autogradient" : 0
									}

								}
,
								"parentstyle" : "",
								"multi" : 0
							}
, 							{
								"name" : "texteditGold",
								"default" : 								{
									"textcolor_inverse" : [ 0.0, 0.0, 0.0, 1.0 ],
									"bgcolor" : [ 0.764706, 0.592157, 0.101961, 0.68 ]
								}
,
								"parentstyle" : "",
								"multi" : 0
							}
 ]
					}
,
					"patching_rect" : [ 1033.7064208984375, 575.33331298828125, 116.0, 22.0 ],
					"saved_object_attributes" : 					{
						"description" : "",
						"digest" : "",
						"globalpatchername" : "",
						"tags" : ""
					}
,
					"text" : "p triggerShadowFIle"
				}

			}
, 			{
				"box" : 				{
					"id" : "obj-108",
					"maxclass" : "newobj",
					"numinlets" : 1,
					"numoutlets" : 2,
					"outlettype" : [ "bang", "" ],
					"patching_rect" : [ 166.0, 904.0, 72.0, 22.0 ],
					"text" : "jit.window B"
				}

			}
, 			{
				"box" : 				{
					"id" : "obj-107",
					"maxclass" : "newobj",
					"numinlets" : 1,
					"numoutlets" : 2,
					"outlettype" : [ "bang", "" ],
					"patching_rect" : [ 850.2518310546875, 910.0, 71.0, 22.0 ],
					"text" : "jit.window A"
				}

			}
, 			{
				"box" : 				{
					"id" : "obj-175",
					"maxclass" : "number",
					"numinlets" : 1,
					"numoutlets" : 2,
					"outlettype" : [ "", "bang" ],
					"parameter_enable" : 0,
					"patching_rect" : [ 1173.7064208984375, 606.33343505859375, 50.0, 22.0 ]
				}

			}
, 			{
				"box" : 				{
					"id" : "obj-47",
					"maxclass" : "jit.pwindow",
					"numinlets" : 1,
					"numoutlets" : 2,
					"outlettype" : [ "", "" ],
					"patching_rect" : [ 1337.5, 584.0, 221.333343505859375, 166.0 ]
				}

			}
, 			{
				"box" : 				{
					"id" : "obj-33",
					"maxclass" : "jit.pwindow",
					"numinlets" : 1,
					"numoutlets" : 2,
					"outlettype" : [ "", "" ],
					"patching_rect" : [ 62.0, 606.33343505859375, 221.333343505859375, 166.0 ]
				}

			}
, 			{
				"box" : 				{
					"id" : "obj-13",
					"maxclass" : "newobj",
					"numinlets" : 1,
					"numoutlets" : 2,
					"outlettype" : [ "jit_matrix", "" ],
					"patching_rect" : [ 62.0, 566.66339111328125, 137.0, 22.0 ],
					"text" : "jit.matrix 1 char 640 480"
				}

			}
, 			{
				"box" : 				{
					"id" : "obj-1",
					"maxclass" : "newobj",
					"numinlets" : 1,
					"numoutlets" : 2,
					"outlettype" : [ "jit_matrix", "" ],
					"patching_rect" : [ 1337.5, 539.9967041015625, 137.0, 22.0 ],
					"text" : "jit.matrix 1 char 640 480"
				}

			}
, 			{
				"box" : 				{
					"id" : "obj-151",
					"maxclass" : "toggle",
					"numinlets" : 1,
					"numoutlets" : 1,
					"outlettype" : [ "int" ],
					"parameter_enable" : 0,
					"patching_rect" : [ 680.00006103515625, 29.333332061767578, 43.666667938232422, 43.666667938232422 ]
				}

			}
, 			{
				"box" : 				{
					"id" : "obj-103",
					"maxclass" : "comment",
					"numinlets" : 1,
					"numoutlets" : 0,
					"patching_rect" : [ 1037.3333740234375, 818.0, 94.0, 20.0 ],
					"text" : "left: depth map"
				}

			}
, 			{
				"box" : 				{
					"id" : "obj-120",
					"maxclass" : "jit.pwindow",
					"numinlets" : 1,
					"numoutlets" : 2,
					"outlettype" : [ "", "" ],
					"patching_rect" : [ 365.449066162109375, 678.99658203125, 188.444442749023438, 141.333328247070312 ]
				}

			}
, 			{
				"box" : 				{
					"id" : "obj-122",
					"maxclass" : "newobj",
					"numinlets" : 2,
					"numoutlets" : 2,
					"outlettype" : [ "jit_matrix", "" ],
					"patching_rect" : [ 323.15216064453125, 640.3299560546875, 127.0, 22.0 ],
					"text" : "jit.op @op + @val 216"
				}

			}
, 			{
				"box" : 				{
					"id" : "obj-119",
					"maxclass" : "jit.pwindow",
					"numinlets" : 1,
					"numoutlets" : 2,
					"outlettype" : [ "", "" ],
					"patching_rect" : [ 1082.0205078125, 652.0, 188.444442749023438, 141.333328247070312 ]
				}

			}
, 			{
				"box" : 				{
					"id" : "obj-118",
					"maxclass" : "newobj",
					"numinlets" : 2,
					"numoutlets" : 2,
					"outlettype" : [ "jit_matrix", "" ],
					"patching_rect" : [ 1033.7064208984375, 606.33343505859375, 127.0, 22.0 ],
					"text" : "jit.op @op + @val 216"
				}

			}
, 			{
				"box" : 				{
					"id" : "obj-30",
					"maxclass" : "newobj",
					"numinlets" : 1,
					"numoutlets" : 2,
					"outlettype" : [ "jit_matrix", "" ],
					"patching_rect" : [ 62.0, 534.50006103515625, 232.0, 22.0 ],
					"text" : "jit.submatrix @dim 590 440 @offset 30 20"
				}

			}
, 			{
				"box" : 				{
					"id" : "obj-23",
					"maxclass" : "newobj",
					"numinlets" : 1,
					"numoutlets" : 2,
					"outlettype" : [ "jit_matrix", "" ],
					"patching_rect" : [ 1337.5, 507.833404541015625, 232.0, 22.0 ],
					"text" : "jit.submatrix @dim 590 440 @offset 30 20"
				}

			}
, 			{
				"box" : 				{
					"id" : "obj-16",
					"maxclass" : "message",
					"numinlets" : 2,
					"numoutlets" : 1,
					"outlettype" : [ "" ],
					"patching_rect" : [ 1069.333251953125, 19.166656494140625, 29.5, 22.0 ],
					"text" : "1"
				}

			}
, 			{
				"box" : 				{
					"id" : "obj-10",
					"maxclass" : "message",
					"numinlets" : 2,
					"numoutlets" : 1,
					"outlettype" : [ "" ],
					"patching_rect" : [ 123.0, 19.0, 29.5, 22.0 ],
					"text" : "2"
				}

			}
, 			{
				"box" : 				{
					"id" : "obj-40",
					"maxclass" : "newobj",
					"numinlets" : 2,
					"numoutlets" : 2,
					"outlettype" : [ "jit_matrix", "" ],
					"patching_rect" : [ 971.039794921875, 792.6666259765625, 83.0, 22.0 ],
					"text" : "jit.op @op +m"
				}

			}
, 			{
				"box" : 				{
					"id" : "obj-41",
					"maxclass" : "jit.pwindow",
					"numinlets" : 1,
					"numoutlets" : 2,
					"outlettype" : [ "", "" ],
					"patching_rect" : [ 971.039794921875, 845.1666259765625, 525.2935791015625, 392.666748046875 ]
				}

			}
, 			{
				"box" : 				{
					"id" : "obj-42",
					"maxclass" : "message",
					"numinlets" : 2,
					"numoutlets" : 1,
					"outlettype" : [ "" ],
					"patching_rect" : [ 1266.65087890625, 51.0, 19.5, 22.0 ],
					"text" : "0"
				}

			}
, 			{
				"box" : 				{
					"id" : "obj-43",
					"maxclass" : "message",
					"numinlets" : 2,
					"numoutlets" : 1,
					"outlettype" : [ "" ],
					"patching_rect" : [ 1337.6666259765625, 20.999992370605469, 37.0, 22.0 ],
					"text" : "gettilt"
				}

			}
, 			{
				"box" : 				{
					"id" : "obj-53",
					"maxclass" : "comment",
					"numinlets" : 1,
					"numoutlets" : 0,
					"patching_rect" : [ 1037.66650390625, 18.999992370605469, 18.0, 20.0 ],
					"text" : "4"
				}

			}
, 			{
				"box" : 				{
					"id" : "obj-55",
					"maxclass" : "comment",
					"numinlets" : 1,
					"numoutlets" : 0,
					"patching_rect" : [ 1148.6666259765625, 79.999992370605469, 19.0, 20.0 ],
					"text" : "3"
				}

			}
, 			{
				"box" : 				{
					"id" : "obj-58",
					"maxclass" : "comment",
					"numinlets" : 1,
					"numoutlets" : 0,
					"patching_rect" : [ 970.66656494140625, 88.999992370605469, 21.0, 20.0 ],
					"text" : "2"
				}

			}
, 			{
				"box" : 				{
					"id" : "obj-59",
					"maxclass" : "comment",
					"numinlets" : 1,
					"numoutlets" : 0,
					"patching_rect" : [ 1166.6666259765625, 146.0, 20.0, 20.0 ],
					"text" : "1"
				}

			}
, 			{
				"box" : 				{
					"id" : "obj-62",
					"maxclass" : "message",
					"numinlets" : 2,
					"numoutlets" : 1,
					"outlettype" : [ "" ],
					"patching_rect" : [ 1192.6666259765625, 173.0, 73.0, 22.0 ],
					"text" : "getndevices"
				}

			}
, 			{
				"box" : 				{
					"id" : "obj-64",
					"maxclass" : "toggle",
					"numinlets" : 1,
					"numoutlets" : 1,
					"outlettype" : [ "int" ],
					"parameter_enable" : 0,
					"patching_rect" : [ 996.66656494140625, 88.999992370605469, 20.0, 20.0 ]
				}

			}
, 			{
				"box" : 				{
					"fontname" : "Arial",
					"fontsize" : 13.0,
					"id" : "obj-66",
					"maxclass" : "message",
					"numinlets" : 2,
					"numoutlets" : 1,
					"outlettype" : [ "" ],
					"patching_rect" : [ 996.66656494140625, 112.999984741210938, 87.0, 23.0 ],
					"text" : "aligndepth $1"
				}

			}
, 			{
				"box" : 				{
					"id" : "obj-71",
					"maxclass" : "message",
					"numinlets" : 2,
					"numoutlets" : 1,
					"outlettype" : [ "" ],
					"patching_rect" : [ 1109.6666259765625, 76.999992370605469, 35.0, 22.0 ],
					"text" : "open"
				}

			}
, 			{
				"box" : 				{
					"id" : "obj-72",
					"maxclass" : "toggle",
					"numinlets" : 1,
					"numoutlets" : 1,
					"outlettype" : [ "int" ],
					"parameter_enable" : 0,
					"patching_rect" : [ 996.66656494140625, 146.0, 20.0, 20.0 ]
				}

			}
, 			{
				"box" : 				{
					"fontname" : "Arial",
					"fontsize" : 13.0,
					"id" : "obj-73",
					"maxclass" : "message",
					"numinlets" : 2,
					"numoutlets" : 1,
					"outlettype" : [ "" ],
					"patching_rect" : [ 996.66656494140625, 173.0, 89.0, 23.0 ],
					"text" : "cleardepth $1"
				}

			}
, 			{
				"box" : 				{
					"id" : "obj-74",
					"maxclass" : "newobj",
					"numinlets" : 1,
					"numoutlets" : 0,
					"patching_rect" : [ 1218.6666259765625, 232.0, 142.0, 22.0 ],
					"text" : "print @popup 1 kinect #1"
				}

			}
, 			{
				"box" : 				{
					"id" : "obj-75",
					"maxclass" : "number",
					"numinlets" : 1,
					"numoutlets" : 2,
					"outlettype" : [ "", "bang" ],
					"parameter_enable" : 0,
					"patching_rect" : [ 1224.40087890625, 95.999992370605469, 50.0, 22.0 ]
				}

			}
, 			{
				"box" : 				{
					"id" : "obj-76",
					"maxclass" : "message",
					"numinlets" : 2,
					"numoutlets" : 1,
					"outlettype" : [ "" ],
					"patching_rect" : [ 1224.40087890625, 126.999984741210938, 37.0, 22.0 ],
					"text" : "tilt $1"
				}

			}
, 			{
				"box" : 				{
					"id" : "obj-77",
					"maxclass" : "message",
					"numinlets" : 2,
					"numoutlets" : 1,
					"outlettype" : [ "" ],
					"patching_rect" : [ 1224.40087890625, 51.0, 41.0, 22.0 ],
					"text" : "set 30"
				}

			}
, 			{
				"box" : 				{
					"id" : "obj-80",
					"maxclass" : "message",
					"numinlets" : 2,
					"numoutlets" : 1,
					"outlettype" : [ "" ],
					"patching_rect" : [ 1224.40087890625, 20.999992370605469, 104.0, 22.0 ],
					"text" : "setminmax -30 30"
				}

			}
, 			{
				"box" : 				{
					"floatoutput" : 1,
					"id" : "obj-82",
					"maxclass" : "slider",
					"min" : -30.0,
					"numinlets" : 1,
					"numoutlets" : 1,
					"outlettype" : [ "" ],
					"parameter_enable" : 0,
					"patching_rect" : [ 1192.6666259765625, 20.999992370605469, 23.0, 127.0 ],
					"size" : 60.0
				}

			}
, 			{
				"box" : 				{
					"id" : "obj-83",
					"maxclass" : "number",
					"numinlets" : 1,
					"numoutlets" : 2,
					"outlettype" : [ "", "bang" ],
					"parameter_enable" : 0,
					"patching_rect" : [ 1109.6666259765625, 146.0, 50.0, 22.0 ]
				}

			}
, 			{
				"box" : 				{
					"id" : "obj-84",
					"maxclass" : "message",
					"numinlets" : 2,
					"numoutlets" : 1,
					"outlettype" : [ "" ],
					"patching_rect" : [ 1109.6666259765625, 173.0, 55.0, 22.0 ],
					"text" : "mode $1"
				}

			}
, 			{
				"box" : 				{
					"id" : "obj-85",
					"maxclass" : "jit.pwindow",
					"numinlets" : 1,
					"numoutlets" : 2,
					"outlettype" : [ "", "" ],
					"patching_rect" : [ 1014.53497314453125, 278.0, 289.453887939453125, 213.323318481445312 ]
				}

			}
, 			{
				"box" : 				{
					"id" : "obj-86",
					"maxclass" : "jit.pwindow",
					"numinlets" : 1,
					"numoutlets" : 2,
					"outlettype" : [ "", "" ],
					"patching_rect" : [ 1337.6666259765625, 278.0, 280.960723876953125, 213.323318481445312 ]
				}

			}
, 			{
				"box" : 				{
					"id" : "obj-87",
					"maxclass" : "message",
					"numinlets" : 2,
					"numoutlets" : 1,
					"outlettype" : [ "" ],
					"patching_rect" : [ 1109.6666259765625, 104.999992370605469, 37.0, 22.0 ],
					"text" : "close"
				}

			}
, 			{
				"box" : 				{
					"id" : "obj-88",
					"maxclass" : "number",
					"numinlets" : 1,
					"numoutlets" : 2,
					"outlettype" : [ "", "bang" ],
					"parameter_enable" : 0,
					"patching_rect" : [ 1109.6666259765625, 17.999992370605469, 50.0, 22.0 ]
				}

			}
, 			{
				"box" : 				{
					"id" : "obj-89",
					"maxclass" : "message",
					"numinlets" : 2,
					"numoutlets" : 1,
					"outlettype" : [ "" ],
					"patching_rect" : [ 1109.6666259765625, 48.0, 52.0, 22.0 ],
					"text" : "open $1"
				}

			}
, 			{
				"box" : 				{
					"id" : "obj-90",
					"maxclass" : "newobj",
					"numinlets" : 1,
					"numoutlets" : 3,
					"outlettype" : [ "jit_matrix", "jit_matrix", "" ],
					"patching_rect" : [ 1009.66656494140625, 232.0, 196.0, 22.0 ],
					"text" : "jit.freenect.grab 1 float32 @mode 3"
				}

			}
, 			{
				"box" : 				{
					"id" : "obj-91",
					"maxclass" : "newobj",
					"numinlets" : 2,
					"numoutlets" : 1,
					"outlettype" : [ "bang" ],
					"patching_rect" : [ 1009.66656494140625, 51.0, 63.0, 22.0 ],
					"text" : "qmetro 30"
				}

			}
, 			{
				"box" : 				{
					"id" : "obj-92",
					"maxclass" : "toggle",
					"numinlets" : 1,
					"numoutlets" : 1,
					"outlettype" : [ "int" ],
					"parameter_enable" : 0,
					"patching_rect" : [ 1009.66656494140625, 18.999992370605469, 24.0, 24.0 ]
				}

			}
, 			{
				"box" : 				{
					"id" : "obj-39",
					"maxclass" : "newobj",
					"numinlets" : 2,
					"numoutlets" : 2,
					"outlettype" : [ "jit_matrix", "" ],
					"patching_rect" : [ 260.4854736328125, 798.32989501953125, 83.0, 22.0 ],
					"text" : "jit.op @op +m"
				}

			}
, 			{
				"box" : 				{
					"id" : "obj-31",
					"maxclass" : "jit.pwindow",
					"numinlets" : 1,
					"numoutlets" : 2,
					"outlettype" : [ "", "" ],
					"patching_rect" : [ 260.4854736328125, 866.66668701171875, 479.111114501953125, 359.333343505859375 ]
				}

			}
, 			{
				"box" : 				{
					"id" : "obj-25",
					"maxclass" : "message",
					"numinlets" : 2,
					"numoutlets" : 1,
					"outlettype" : [ "" ],
					"patching_rect" : [ 318.98419189453125, 51.0, 19.5, 22.0 ],
					"text" : "0"
				}

			}
, 			{
				"box" : 				{
					"id" : "obj-20",
					"maxclass" : "message",
					"numinlets" : 2,
					"numoutlets" : 1,
					"outlettype" : [ "" ],
					"patching_rect" : [ 390.0, 21.0, 37.0, 22.0 ],
					"text" : "gettilt"
				}

			}
, 			{
				"box" : 				{
					"fontname" : "Arial",
					"fontsize" : 12.0,
					"id" : "obj-26",
					"linecount" : 11,
					"maxclass" : "comment",
					"numinlets" : 1,
					"numoutlets" : 0,
					"patching_rect" : [ 348.5, 57.404510498046875, 148.0, 154.0 ],
					"text" : "Output format for the depth data.\n\n0: raw data (0 - 2047)\n1: normalized (b-w)\n2: normalized (w-b)\n3: distance (in cm)\n\nNote that if output type is long mode 1 is the same as mode 0.",
					"varname" : "me-comment[6]"
				}

			}
, 			{
				"box" : 				{
					"angle" : 0.0,
					"bgcolor" : [ 0.0, 0.0, 0.0, 0.058824 ],
					"border" : 1,
					"bordercolor" : [ 0.0, 0.0, 0.0, 0.0 ],
					"id" : "obj-28",
					"maxclass" : "panel",
					"mode" : 0,
					"numinlets" : 1,
					"numoutlets" : 0,
					"patching_rect" : [ 342.0, 51.0, 161.0, 166.80902099609375 ],
					"proportion" : 0.39,
					"rounded" : 0,
					"varname" : "io-panel[5]"
				}

			}
, 			{
				"box" : 				{
					"id" : "obj-21",
					"maxclass" : "comment",
					"numinlets" : 1,
					"numoutlets" : 0,
					"patching_rect" : [ 90.0, 19.0, 18.0, 20.0 ],
					"text" : "4"
				}

			}
, 			{
				"box" : 				{
					"id" : "obj-19",
					"maxclass" : "comment",
					"numinlets" : 1,
					"numoutlets" : 0,
					"patching_rect" : [ 201.0, 80.0, 19.0, 20.0 ],
					"text" : "3"
				}

			}
, 			{
				"box" : 				{
					"id" : "obj-17",
					"maxclass" : "comment",
					"numinlets" : 1,
					"numoutlets" : 0,
					"patching_rect" : [ 23.0, 89.0, 21.0, 20.0 ],
					"text" : "2"
				}

			}
, 			{
				"box" : 				{
					"id" : "obj-14",
					"maxclass" : "comment",
					"numinlets" : 1,
					"numoutlets" : 0,
					"patching_rect" : [ 219.0, 146.0, 20.0, 20.0 ],
					"text" : "1"
				}

			}
, 			{
				"box" : 				{
					"id" : "obj-12",
					"maxclass" : "message",
					"numinlets" : 2,
					"numoutlets" : 1,
					"outlettype" : [ "" ],
					"patching_rect" : [ 245.0, 173.0, 73.0, 22.0 ],
					"text" : "getndevices"
				}

			}
, 			{
				"box" : 				{
					"id" : "obj-7",
					"maxclass" : "toggle",
					"numinlets" : 1,
					"numoutlets" : 1,
					"outlettype" : [ "int" ],
					"parameter_enable" : 0,
					"patching_rect" : [ 49.0, 89.0, 20.0, 20.0 ]
				}

			}
, 			{
				"box" : 				{
					"fontname" : "Arial",
					"fontsize" : 13.0,
					"id" : "obj-9",
					"maxclass" : "message",
					"numinlets" : 2,
					"numoutlets" : 1,
					"outlettype" : [ "" ],
					"patching_rect" : [ 49.0, 113.0, 87.0, 23.0 ],
					"text" : "aligndepth $1"
				}

			}
, 			{
				"box" : 				{
					"id" : "obj-5",
					"maxclass" : "message",
					"numinlets" : 2,
					"numoutlets" : 1,
					"outlettype" : [ "" ],
					"patching_rect" : [ 162.0, 77.0, 35.0, 22.0 ],
					"text" : "open"
				}

			}
, 			{
				"box" : 				{
					"id" : "obj-60",
					"maxclass" : "toggle",
					"numinlets" : 1,
					"numoutlets" : 1,
					"outlettype" : [ "int" ],
					"parameter_enable" : 0,
					"patching_rect" : [ 49.0, 146.0, 20.0, 20.0 ]
				}

			}
, 			{
				"box" : 				{
					"fontname" : "Arial",
					"fontsize" : 13.0,
					"id" : "obj-61",
					"maxclass" : "message",
					"numinlets" : 2,
					"numoutlets" : 1,
					"outlettype" : [ "" ],
					"patching_rect" : [ 49.0, 173.0, 89.0, 23.0 ],
					"text" : "cleardepth $1"
				}

			}
, 			{
				"box" : 				{
					"id" : "obj-57",
					"maxclass" : "newobj",
					"numinlets" : 1,
					"numoutlets" : 0,
					"patching_rect" : [ 271.0, 232.0, 142.0, 22.0 ],
					"text" : "print @popup 1 kinect #1"
				}

			}
, 			{
				"box" : 				{
					"id" : "obj-56",
					"maxclass" : "number",
					"numinlets" : 1,
					"numoutlets" : 2,
					"outlettype" : [ "", "bang" ],
					"parameter_enable" : 0,
					"patching_rect" : [ 276.73419189453125, 96.0, 50.0, 22.0 ]
				}

			}
, 			{
				"box" : 				{
					"id" : "obj-54",
					"maxclass" : "message",
					"numinlets" : 2,
					"numoutlets" : 1,
					"outlettype" : [ "" ],
					"patching_rect" : [ 276.73419189453125, 127.0, 37.0, 22.0 ],
					"text" : "tilt $1"
				}

			}
, 			{
				"box" : 				{
					"id" : "obj-51",
					"maxclass" : "message",
					"numinlets" : 2,
					"numoutlets" : 1,
					"outlettype" : [ "" ],
					"patching_rect" : [ 276.73419189453125, 51.0, 41.0, 22.0 ],
					"text" : "set 30"
				}

			}
, 			{
				"box" : 				{
					"id" : "obj-49",
					"maxclass" : "message",
					"numinlets" : 2,
					"numoutlets" : 1,
					"outlettype" : [ "" ],
					"patching_rect" : [ 276.73419189453125, 21.0, 104.0, 22.0 ],
					"text" : "setminmax -30 30"
				}

			}
, 			{
				"box" : 				{
					"floatoutput" : 1,
					"id" : "obj-46",
					"maxclass" : "slider",
					"min" : -30.0,
					"numinlets" : 1,
					"numoutlets" : 1,
					"outlettype" : [ "" ],
					"parameter_enable" : 0,
					"patching_rect" : [ 245.0, 21.0, 23.0, 127.0 ],
					"size" : 60.0
				}

			}
, 			{
				"box" : 				{
					"id" : "obj-34",
					"maxclass" : "number",
					"numinlets" : 1,
					"numoutlets" : 2,
					"outlettype" : [ "", "bang" ],
					"parameter_enable" : 0,
					"patching_rect" : [ 162.0, 146.0, 50.0, 22.0 ]
				}

			}
, 			{
				"box" : 				{
					"id" : "obj-32",
					"maxclass" : "message",
					"numinlets" : 2,
					"numoutlets" : 1,
					"outlettype" : [ "" ],
					"patching_rect" : [ 162.0, 173.0, 55.0, 22.0 ],
					"text" : "mode $1"
				}

			}
, 			{
				"box" : 				{
					"id" : "obj-29",
					"maxclass" : "jit.pwindow",
					"numinlets" : 1,
					"numoutlets" : 2,
					"outlettype" : [ "", "" ],
					"patching_rect" : [ 390.0, 278.0, 284.517364501953125, 213.323318481445312 ]
				}

			}
, 			{
				"box" : 				{
					"id" : "obj-27",
					"maxclass" : "jit.pwindow",
					"numinlets" : 1,
					"numoutlets" : 2,
					"outlettype" : [ "", "" ],
					"patching_rect" : [ 62.0, 278.0, 284.517364501953125, 213.323318481445312 ]
				}

			}
, 			{
				"box" : 				{
					"id" : "obj-15",
					"maxclass" : "message",
					"numinlets" : 2,
					"numoutlets" : 1,
					"outlettype" : [ "" ],
					"patching_rect" : [ 162.0, 105.0, 37.0, 22.0 ],
					"text" : "close"
				}

			}
, 			{
				"box" : 				{
					"id" : "obj-8",
					"maxclass" : "number",
					"numinlets" : 1,
					"numoutlets" : 2,
					"outlettype" : [ "", "bang" ],
					"parameter_enable" : 0,
					"patching_rect" : [ 162.0, 18.0, 50.0, 22.0 ]
				}

			}
, 			{
				"box" : 				{
					"id" : "obj-6",
					"maxclass" : "message",
					"numinlets" : 2,
					"numoutlets" : 1,
					"outlettype" : [ "" ],
					"patching_rect" : [ 162.0, 48.0, 52.0, 22.0 ],
					"text" : "open $1"
				}

			}
, 			{
				"box" : 				{
					"id" : "obj-4",
					"maxclass" : "newobj",
					"numinlets" : 1,
					"numoutlets" : 3,
					"outlettype" : [ "jit_matrix", "jit_matrix", "" ],
					"patching_rect" : [ 62.0, 232.0, 196.0, 22.0 ],
					"text" : "jit.freenect.grab 1 float32 @mode 3"
				}

			}
, 			{
				"box" : 				{
					"id" : "obj-3",
					"maxclass" : "newobj",
					"numinlets" : 2,
					"numoutlets" : 1,
					"outlettype" : [ "bang" ],
					"patching_rect" : [ 62.0, 51.0, 63.0, 22.0 ],
					"text" : "qmetro 30"
				}

			}
, 			{
				"box" : 				{
					"id" : "obj-2",
					"maxclass" : "toggle",
					"numinlets" : 1,
					"numoutlets" : 1,
					"outlettype" : [ "int" ],
					"parameter_enable" : 0,
					"patching_rect" : [ 62.0, 19.0, 24.0, 24.0 ]
				}

			}
 ],
		"lines" : [ 			{
				"patchline" : 				{
					"destination" : [ "obj-47", 0 ],
					"source" : [ "obj-1", 0 ]
				}

			}
, 			{
				"patchline" : 				{
					"destination" : [ "obj-8", 0 ],
					"source" : [ "obj-10", 0 ]
				}

			}
, 			{
				"patchline" : 				{
					"destination" : [ "obj-118", 0 ],
					"source" : [ "obj-113", 0 ]
				}

			}
, 			{
				"patchline" : 				{
					"destination" : [ "obj-113", 1 ],
					"source" : [ "obj-115", 0 ]
				}

			}
, 			{
				"patchline" : 				{
					"destination" : [ "obj-122", 0 ],
					"source" : [ "obj-116", 0 ]
				}

			}
, 			{
				"patchline" : 				{
					"destination" : [ "obj-116", 1 ],
					"source" : [ "obj-117", 0 ]
				}

			}
, 			{
				"patchline" : 				{
					"destination" : [ "obj-119", 0 ],
					"order" : 0,
					"source" : [ "obj-118", 0 ]
				}

			}
, 			{
				"patchline" : 				{
					"destination" : [ "obj-40", 1 ],
					"order" : 1,
					"source" : [ "obj-118", 0 ]
				}

			}
, 			{
				"patchline" : 				{
					"destination" : [ "obj-4", 0 ],
					"source" : [ "obj-12", 0 ]
				}

			}
, 			{
				"patchline" : 				{
					"destination" : [ "obj-120", 0 ],
					"order" : 0,
					"source" : [ "obj-122", 0 ]
				}

			}
, 			{
				"patchline" : 				{
					"destination" : [ "obj-39", 1 ],
					"order" : 1,
					"source" : [ "obj-122", 0 ]
				}

			}
, 			{
				"patchline" : 				{
					"destination" : [ "obj-33", 0 ],
					"source" : [ "obj-13", 0 ]
				}

			}
, 			{
				"patchline" : 				{
					"destination" : [ "obj-4", 0 ],
					"source" : [ "obj-15", 0 ]
				}

			}
, 			{
				"patchline" : 				{
					"destination" : [ "obj-113", 0 ],
					"order" : 1,
					"source" : [ "obj-151", 0 ]
				}

			}
, 			{
				"patchline" : 				{
					"destination" : [ "obj-115", 1 ],
					"order" : 0,
					"source" : [ "obj-151", 0 ]
				}

			}
, 			{
				"patchline" : 				{
					"destination" : [ "obj-116", 0 ],
					"order" : 3,
					"source" : [ "obj-151", 0 ]
				}

			}
, 			{
				"patchline" : 				{
					"destination" : [ "obj-117", 1 ],
					"order" : 2,
					"source" : [ "obj-151", 0 ]
				}

			}
, 			{
				"patchline" : 				{
					"destination" : [ "obj-88", 0 ],
					"source" : [ "obj-16", 0 ]
				}

			}
, 			{
				"patchline" : 				{
					"destination" : [ "obj-118", 1 ],
					"source" : [ "obj-175", 0 ]
				}

			}
, 			{
				"patchline" : 				{
					"destination" : [ "obj-3", 0 ],
					"source" : [ "obj-2", 0 ]
				}

			}
, 			{
				"patchline" : 				{
					"destination" : [ "obj-4", 0 ],
					"source" : [ "obj-20", 0 ]
				}

			}
, 			{
				"patchline" : 				{
					"destination" : [ "obj-1", 0 ],
					"source" : [ "obj-23", 0 ]
				}

			}
, 			{
				"patchline" : 				{
					"destination" : [ "obj-46", 0 ],
					"source" : [ "obj-25", 0 ]
				}

			}
, 			{
				"patchline" : 				{
					"destination" : [ "obj-30", 0 ],
					"source" : [ "obj-27", 0 ]
				}

			}
, 			{
				"patchline" : 				{
					"destination" : [ "obj-4", 0 ],
					"source" : [ "obj-3", 0 ]
				}

			}
, 			{
				"patchline" : 				{
					"destination" : [ "obj-13", 0 ],
					"source" : [ "obj-30", 0 ]
				}

			}
, 			{
				"patchline" : 				{
					"destination" : [ "obj-4", 0 ],
					"source" : [ "obj-32", 0 ]
				}

			}
, 			{
				"patchline" : 				{
					"destination" : [ "obj-117", 0 ],
					"source" : [ "obj-33", 0 ]
				}

			}
, 			{
				"patchline" : 				{
					"destination" : [ "obj-32", 0 ],
					"source" : [ "obj-34", 0 ]
				}

			}
, 			{
				"patchline" : 				{
					"destination" : [ "obj-108", 0 ],
					"order" : 1,
					"source" : [ "obj-39", 0 ]
				}

			}
, 			{
				"patchline" : 				{
					"destination" : [ "obj-31", 0 ],
					"order" : 0,
					"source" : [ "obj-39", 0 ]
				}

			}
, 			{
				"patchline" : 				{
					"destination" : [ "obj-27", 0 ],
					"source" : [ "obj-4", 0 ]
				}

			}
, 			{
				"patchline" : 				{
					"destination" : [ "obj-29", 0 ],
					"order" : 0,
					"source" : [ "obj-4", 1 ]
				}

			}
, 			{
				"patchline" : 				{
					"destination" : [ "obj-39", 0 ],
					"order" : 1,
					"source" : [ "obj-4", 1 ]
				}

			}
, 			{
				"patchline" : 				{
					"destination" : [ "obj-57", 0 ],
					"source" : [ "obj-4", 2 ]
				}

			}
, 			{
				"patchline" : 				{
					"destination" : [ "obj-107", 0 ],
					"order" : 1,
					"source" : [ "obj-40", 0 ]
				}

			}
, 			{
				"patchline" : 				{
					"destination" : [ "obj-41", 0 ],
					"order" : 0,
					"source" : [ "obj-40", 0 ]
				}

			}
, 			{
				"patchline" : 				{
					"destination" : [ "obj-82", 0 ],
					"source" : [ "obj-42", 0 ]
				}

			}
, 			{
				"patchline" : 				{
					"destination" : [ "obj-90", 0 ],
					"source" : [ "obj-43", 0 ]
				}

			}
, 			{
				"patchline" : 				{
					"destination" : [ "obj-56", 0 ],
					"source" : [ "obj-46", 0 ]
				}

			}
, 			{
				"patchline" : 				{
					"destination" : [ "obj-115", 0 ],
					"source" : [ "obj-47", 0 ]
				}

			}
, 			{
				"patchline" : 				{
					"destination" : [ "obj-46", 0 ],
					"order" : 1,
					"source" : [ "obj-49", 0 ]
				}

			}
, 			{
				"patchline" : 				{
					"destination" : [ "obj-51", 0 ],
					"order" : 0,
					"source" : [ "obj-49", 0 ]
				}

			}
, 			{
				"patchline" : 				{
					"destination" : [ "obj-4", 0 ],
					"source" : [ "obj-5", 0 ]
				}

			}
, 			{
				"patchline" : 				{
					"destination" : [ "obj-46", 0 ],
					"source" : [ "obj-51", 0 ]
				}

			}
, 			{
				"patchline" : 				{
					"destination" : [ "obj-4", 0 ],
					"source" : [ "obj-54", 0 ]
				}

			}
, 			{
				"patchline" : 				{
					"destination" : [ "obj-54", 0 ],
					"source" : [ "obj-56", 0 ]
				}

			}
, 			{
				"patchline" : 				{
					"destination" : [ "obj-4", 0 ],
					"source" : [ "obj-6", 0 ]
				}

			}
, 			{
				"patchline" : 				{
					"destination" : [ "obj-61", 0 ],
					"source" : [ "obj-60", 0 ]
				}

			}
, 			{
				"patchline" : 				{
					"destination" : [ "obj-4", 0 ],
					"source" : [ "obj-61", 0 ]
				}

			}
, 			{
				"patchline" : 				{
					"destination" : [ "obj-90", 0 ],
					"source" : [ "obj-62", 0 ]
				}

			}
, 			{
				"patchline" : 				{
					"destination" : [ "obj-66", 0 ],
					"source" : [ "obj-64", 0 ]
				}

			}
, 			{
				"patchline" : 				{
					"destination" : [ "obj-90", 0 ],
					"source" : [ "obj-66", 0 ]
				}

			}
, 			{
				"patchline" : 				{
					"destination" : [ "obj-9", 0 ],
					"source" : [ "obj-7", 0 ]
				}

			}
, 			{
				"patchline" : 				{
					"destination" : [ "obj-90", 0 ],
					"source" : [ "obj-71", 0 ]
				}

			}
, 			{
				"patchline" : 				{
					"destination" : [ "obj-73", 0 ],
					"source" : [ "obj-72", 0 ]
				}

			}
, 			{
				"patchline" : 				{
					"destination" : [ "obj-90", 0 ],
					"source" : [ "obj-73", 0 ]
				}

			}
, 			{
				"patchline" : 				{
					"destination" : [ "obj-76", 0 ],
					"source" : [ "obj-75", 0 ]
				}

			}
, 			{
				"patchline" : 				{
					"destination" : [ "obj-90", 0 ],
					"source" : [ "obj-76", 0 ]
				}

			}
, 			{
				"patchline" : 				{
					"destination" : [ "obj-82", 0 ],
					"source" : [ "obj-77", 0 ]
				}

			}
, 			{
				"patchline" : 				{
					"destination" : [ "obj-6", 0 ],
					"source" : [ "obj-8", 0 ]
				}

			}
, 			{
				"patchline" : 				{
					"destination" : [ "obj-77", 0 ],
					"order" : 0,
					"source" : [ "obj-80", 0 ]
				}

			}
, 			{
				"patchline" : 				{
					"destination" : [ "obj-82", 0 ],
					"order" : 1,
					"source" : [ "obj-80", 0 ]
				}

			}
, 			{
				"patchline" : 				{
					"destination" : [ "obj-75", 0 ],
					"source" : [ "obj-82", 0 ]
				}

			}
, 			{
				"patchline" : 				{
					"destination" : [ "obj-84", 0 ],
					"source" : [ "obj-83", 0 ]
				}

			}
, 			{
				"patchline" : 				{
					"destination" : [ "obj-90", 0 ],
					"source" : [ "obj-84", 0 ]
				}

			}
, 			{
				"patchline" : 				{
					"destination" : [ "obj-23", 0 ],
					"source" : [ "obj-86", 0 ]
				}

			}
, 			{
				"patchline" : 				{
					"destination" : [ "obj-90", 0 ],
					"source" : [ "obj-87", 0 ]
				}

			}
, 			{
				"patchline" : 				{
					"destination" : [ "obj-89", 0 ],
					"source" : [ "obj-88", 0 ]
				}

			}
, 			{
				"patchline" : 				{
					"destination" : [ "obj-90", 0 ],
					"source" : [ "obj-89", 0 ]
				}

			}
, 			{
				"patchline" : 				{
					"destination" : [ "obj-4", 0 ],
					"source" : [ "obj-9", 0 ]
				}

			}
, 			{
				"patchline" : 				{
					"destination" : [ "obj-40", 0 ],
					"order" : 1,
					"source" : [ "obj-90", 1 ]
				}

			}
, 			{
				"patchline" : 				{
					"destination" : [ "obj-74", 0 ],
					"source" : [ "obj-90", 2 ]
				}

			}
, 			{
				"patchline" : 				{
					"destination" : [ "obj-85", 0 ],
					"order" : 0,
					"source" : [ "obj-90", 1 ]
				}

			}
, 			{
				"patchline" : 				{
					"destination" : [ "obj-86", 0 ],
					"source" : [ "obj-90", 0 ]
				}

			}
, 			{
				"patchline" : 				{
					"destination" : [ "obj-90", 0 ],
					"source" : [ "obj-91", 0 ]
				}

			}
, 			{
				"patchline" : 				{
					"destination" : [ "obj-91", 0 ],
					"source" : [ "obj-92", 0 ]
				}

			}
 ],
		"dependency_cache" : [ 			{
				"name" : "jit.freenect.grab.mxo",
				"type" : "iLaX"
			}
 ],
		"autosave" : 0,
		"styles" : [ 			{
				"name" : "newobjBlue-1",
				"default" : 				{
					"accentcolor" : [ 0.317647, 0.654902, 0.976471, 1.0 ]
				}
,
				"parentstyle" : "",
				"multi" : 0
			}
, 			{
				"name" : "newobjGold-1",
				"default" : 				{
					"accentcolor" : [ 0.764706, 0.592157, 0.101961, 1.0 ]
				}
,
				"parentstyle" : "",
				"multi" : 0
			}
, 			{
				"name" : "newobjGreen-1",
				"default" : 				{
					"accentcolor" : [ 0.0, 0.533333, 0.168627, 1.0 ]
				}
,
				"parentstyle" : "",
				"multi" : 0
			}
, 			{
				"name" : "newobjYellow-1",
				"default" : 				{
					"accentcolor" : [ 0.82517, 0.78181, 0.059545, 1.0 ],
					"fontsize" : [ 12.059008 ]
				}
,
				"parentstyle" : "",
				"multi" : 0
			}
, 			{
				"name" : "numberB-1",
				"default" : 				{
					"accentcolor" : [ 0.011765, 0.396078, 0.752941, 1.0 ]
				}
,
				"parentstyle" : "",
				"multi" : 0
			}
, 			{
				"name" : "numberG-1",
				"default" : 				{
					"accentcolor" : [ 0.0, 0.533333, 0.168627, 1.0 ]
				}
,
				"parentstyle" : "",
				"multi" : 0
			}
, 			{
				"name" : "numberGold-1",
				"default" : 				{
					"accentcolor" : [ 0.764706, 0.592157, 0.101961, 1.0 ]
				}
,
				"parentstyle" : "",
				"multi" : 0
			}
, 			{
				"name" : "numberR-1",
				"default" : 				{
					"accentcolor" : [ 0.784314, 0.145098, 0.023529, 1.0 ]
				}
,
				"parentstyle" : "",
				"multi" : 0
			}
, 			{
				"name" : "panelGold-1",
				"default" : 				{
					"bgfillcolor" : 					{
						"type" : "color",
						"color" : [ 0.764706, 0.592157, 0.101961, 0.25 ],
						"color1" : [ 0.764706, 0.592157, 0.101961, 1.0 ],
						"color2" : [ 0.290196, 0.309804, 0.301961, 1.0 ],
						"angle" : 270.0,
						"proportion" : 0.39,
						"autogradient" : 0
					}

				}
,
				"parentstyle" : "",
				"multi" : 0
			}
, 			{
				"name" : "texteditGold",
				"default" : 				{
					"textcolor_inverse" : [ 0.0, 0.0, 0.0, 1.0 ],
					"bgcolor" : [ 0.764706, 0.592157, 0.101961, 0.68 ]
				}
,
				"parentstyle" : "",
				"multi" : 0
			}
 ]
	}

}
